<mxfile host="app.diagrams.net" agent="Mozilla/5.0 (Windows NT 10.0; Win64; x64) AppleWebKit/537.36 (KHTML, like Gecko) Chrome/134.0.0.0 Safari/537.36" version="26.1.1">
  <diagram name="第 1 页" id="hB2Oq8gtq18goQKrfPED">
    <mxGraphModel dx="1695" dy="1205" grid="1" gridSize="10" guides="1" tooltips="1" connect="1" arrows="1" fold="1" page="0" pageScale="1" pageWidth="827" pageHeight="1169" math="0" shadow="0">
      <root>
        <mxCell id="0" />
        <mxCell id="1" parent="0" />
        <mxCell id="PZ7zvNxP-qL3yY4XstrH-4" value="" style="shape=image;verticalLabelPosition=bottom;labelBackgroundColor=default;verticalAlign=top;aspect=fixed;imageAspect=0;image=data:image/png,iVBORw0KGgoAAAANSUhEUgAABAcAAAeTCAMAAAAABb64AAAAAXNSR0IArs4c6QAAAARnQU1BAACxjwv8YQUAAADqUExURQAAAAAAAAAAAAAAAAAAAAAAAAAAAAAAAAAAAAAAAAAAAAAAAAAAAAAAAAAAAAAAAAAAAAAAAEBAQHBwcJ+fn7+/v8/Pz////9fX16enp3h4eBAQEAAAAAAAAAAAAAAAAAAAACAgIN/f34+PjzAwMAAAABgYGCgoKAAAAAAAAAAAAPf397e3t0hISK+vrwAAAAgICDg4OO/v72BgYAcHBwAAAAAAAAAAAA8PDwEBAcfHx39/f+fn55eXl1hYWAAAAFBQUIeHh2hoaAEBAQAAABcXFwEBAQAAAAAAAAAAAAAAAAAAAAAAAAAAABDxqnIAAABOdFJOUwAIQHCAr7/P/98YSJ/vYDCX5//////////////3p1BYx/////8Q//+PONf/////KP/////+ILeH/uj//////2j////weP7466T8++2i49yVfzwAAAAJcEhZcwAAFxEAABcRAcom8z8AALhGSURBVHhe7f0Jm9rG1j7uxkOcZceOYzE2OAODwQlDBGTYvxbNht77ff/DOef7f52zVlVplkB0C6Tueu7rShr33KB6VFWqWvoGnq4XL1+9/vbNm+/o6Xn75s2b169fvjN/CQA8yPfv35o29ZR9+PaHF+YPAoDzfPzxk7Qip9FstVrtztPT5d/7puf0+Y/4/NPP5q8CgOJ++ZWbz6DRNW3qKRuOxvy3vH31xfxpAFDIK+4KTBpPsROQbTiacqfgK5IAoLDffieaNmemDT0T8wXRhx/MXwgAx315zwOCpWk9z0nbIfr1D/NXAsARv30it/fM+gK+5oQ+o0sAcNIrotVzmBzMtt4Q/YiLiABHvfiWqPFMOwNa80/67i/z1wJAhhd/U/85zgxEtaf0FkEAkOvLd9R/PtcK86zH9BazhQA5OAYGzz8GVBB8+Gj+ZgCIefGGBkPTVJ632YI+YWgAkOUnW2KAg2BF32FtIUDaP/Sv53u9MGk9oL/N3w0AgV/IbZlGYoNhn/4xfzkAGO/+D92YJmKH2z/pN/O3A4D2Ey1MA7GFR79jYSFA1C/U35r2YYvZGCMDgCgeFdyZ5mGPNkYGAFE/kWMah016GBkAhL4n15aVA1GzKUYGAL4vn2hkmoZdbgkjAwDjK61Mw7BNj74zzwGA5b58Jht2F2WZTeileRYA7PbKyklCzaNvzbMAYLdP9NxLj+Tb/km47RnAN9/8TAPTKGy0o6/meQCw2a+WXizQ2vQJawgAPpL7rOuSnjKmf5tnAsBe76lhWoSdbnDpEODdZ7Kn+kgWXDoE+OY17U2DsJVHP5nnAsBWv1p80VAb0gfMFILdvpC7Nu3BWgMMDMByP1i8ltDXwK5DsNx7OpjWUDuza81ftnDFACz3oT5XC5qj+K9yQ6umeXhZM5dwUxOw2V80MY2hej2iabRG4opof52aiXv62TwfADb6+QpXDZ2Nl+PeibbzDbnRDkGbqGceXpqHCQKw2tcrTA/QEdFqaIt45fR7Gl9rvfMS9zYCq72huWkLl+Pok3+fGvoB69NevV3ExwHRTOq611vYsKYP5vkAsNF/6GqrBwaRk/+AMmYAJ7EbKu3NiGV7jU7BABOFYLF3Vyw9cCoHZhStjtY2/2r2N+rfl7Wn780zAmCf3664iuhUDnDLj/RN9mYXpEdZXYeyNegH84wA2OdnusbZVjuVA8voJcw5uXrqYLaKX0W4jAO9Ns8IgH1eXe3S3PEcaHqet6eJmjp05p3OehDcZm3Yp9XFpwhu6L15RgDs8/WKdzU8lgOOuYyo3MolxHC8siTyzMOLuaU35hkBsM/7K1w29B3LgcbC8ybqWmKDaN11aGIuKHZbrRaHBEfDRQ3pd/OMANjnb2qZlnB5J+YHZq66QNCiPo/WkwYXHhkM6a15RgDs8+aKOTA5ngNtXS61SStuldrYcWTpUXNEdK8/6VKQA2Cz7yJt89Kii4gzcmCk77F4oF2nc+/NW9GVhvv+pYcvROYZAbDP24vngBMgWplHjuPS1Dxa+ROCZsHAfdYVjG40FC4COQAW+3T5HDB9/Fx+DphVxeMrXsGIQA6AxS7fH2h6Ny3lQKQfiAn19IM7zwwQhmbYoGcLrw45ABa7fA4E7qJbGdLzAyP9YX+2UFYUheQjl4UcAIu9ud7ZtxfdypDOAUevcD7QWN7szKBBu/xeqC02HoPFrnjdcCcXAnypHNi6+j2OnibckClawPb6QsJF4boh2Oyn6+XAOHohIJUDd0TjrpyX9S/kRZYSN6+wJxI5ADb7MdU/vxQ+4UfWAKTHBYc+9ec8LOirf107B9r0q3lGAOzz36vdvWBE/cja4HQOdLYLotEgqDpw3RyY4xaHYLEfLr1gNzCIVTrIyAGZFGC61sC1c+COvppnBMA+L+Mlgi9nTrGdjZk5IDcwmOiSRNfOgR69Ms8IgH3+oqlpCZc1W9E0umUwNwdooDoE186BHW5kAjbTy3Yujrv8sQsTmTnQdmnhymzh9XNgTB/NEwJgoe+uspAotXE4Kwe2A1rN5q6qS3rlHJi5n1+YJwTAQu+vsa2HG7cZ9/sycmA9VkWI5iRTFh5t9P4DFluIeBm3uOExWO3fVyhYLOWFErcmGtDIPPLdTshV1ceaCx6peHLpIHDxHBjRj+b5ALDRR72e/4LWe27JybP/INLvV6ThRz7Jo4GpT+A408vnwIb+bZ4PABu9+HzhG5utpxkx0JnEq42sV4lPapj1ROLu8tc0BpgmBLu9STfScm13yXM/o8RwpNmP/xqbyMe96P1NLqKL3YZguVeXnyAoUuJgG59AaDhhf6B18foDB9zFBCz3h9nZYzMHdzcE2729Yunyelr/SV/MkwFgqR8jU3J2amLTMVjv45WWFtfXGFcNAX5Nremxyy19wqJisN7PV9pzWFc71B4A+ObFp+SqX6ts/6S/zDMBYLFXtDdtwkYefWueBwCbvftczT2EamE2oe/N8wBgNZsvHS6x5RhA+UjuZTcb1dgKlQkBtDdZNxu3wpw+4KIhgPIbkaoBYp31/9B/zXMAYL1/4uWErbHBkmKAwIvfM4oEPH9z+vyHeQYAgEcGf9p37RCjAoC4f2hs3chgQ2/MXw8AwsKRAY8KsKIYIMa6kQGPCrDfGCDhHxpsTROxwczBqAAg5cWvVk0R7OgTRgUAKV/eXusu6DXg0WfcswAgwx//ucJdzuqhSbjTOUC2l58tCYI7wsoBgDzf/4f2FswReIRdhgD5Pn4g57lfNZjdE25cAnDMx080ed43NhmO6TNKEAEc9e4NPeuVhct/0e+4UgBwyj9E4+dajmC7J/oWdzEDOO37T0T3z7JS2eFf9BkXCgAK+cJdgr733OYLZ80B0d9YRAhQ1B+/Ern3XdOCnoPtYUL0FhOEAOd4+S0RTb3nEQXbO4f/mu9wtRDgXH/9+IEbz3h3aD3puYLW6H7Ff8fnn16avwsAzvLze4mCp+/zT7+gPDnAw3385fWbpxwGn998/Td6AgC1R+YtANgLOQAAyAEAQA4AAHIAAJADAIAcAADkAAAgBwAAOQAAyAEAQA4AAHIAAJADAIAcAADkAAAgBwAAOQAAyAEAQA4AAHIAAJADAIAcAADkAAAgBwAAOQAAyAEAQA4AAHIAAJADAIAcAADkAAAgBwAAOQAAyAEAQA4AAHIAAJADAIAcAADkAAAgBwAAOQAAyAEAQA4AAHIAAJADAIAcAADkAAAgBwAAOQAAyAEAQA4AAHIAAJADAIAcAADkAAAgBwAAOQAAyAEAQA4AAHIAAJADAIAcAADkAAAgBwAAOQAAyAEAQA4AAHIAAJADADb7SqGv5n0AYJd3n00IEH1+Z94HAJYJOwToDgDYKugQoDsAYC+/Q4DuAIC9TIcA3QEAm+kOAboDADZTHQJ0BwDsJh0CdAcA7MYdAnQHAGz3Fd0BgCfnbzWz99z8Y/46ACjgo2k4zwuGJgDn+JYanedmh6EJwDk+krs1refZ2P6J7gDAOX6kjWk9z0eDfjJ/HQAU8O4ztU3reTa2Ln00fx4AFPCV9qb1PB89+tb8dQBQwHPsDsz+B90BgHP8lxam9TwfI/rV/HUAUMCLT7Q0refZmE3oZ/PnAUABr2hsWs/zcUffmb8OAAp4jt2BzhjdAYBz/EJT03iejyV9Mn8dABTxHY1M63k+xvTK/HUAUMDPNJmZ1vNscHfghfnzAKCA59gd2KM7AHCO36j/7LoDbfr8xfx5AFDAc9xwvMeGY4BzFN1w3GyZB0pjcRiah49ycBqlfJ847g5gwzHAGYp2B/o0uTUPpaHRpJQNCZuLDEoa6A4AnOMdUaHuALf8nXnI9kQUpkKKV/gc75FjHpVo+yf9Yf48ACig6IbjUXT4sCTa0yD3RO5Rv+j6RO8S5U8a2HAMcI7CG473kRP3bMqtd5PbgtcO9xY8848TLpEDqD8CcJ7C9Uf6kUUGG5rOJAx65t8pN5PcIJg7Ts8LOTQ2j0TDKWOUMEJ3AOAcL/5zbJhv9B3HWRGN+Y3j8Om7SW6X393t55/L1wui2PWFQFOVE89nPu0RZv9D35s/DwAKKLTh2LRQbdNpu3Sj3t/u0y5vjnFLNMn8WNvz5i2fDCBcopH5Z2vpFRxOHDPChmOAcxTbcNxq3XbGdMePtq1Wl1u/f6GRH/bzliRzCz91PXK9504GbRbUL7MmGuqPAJyncP2RIblr/YjbfljCbMvDhWnTfCSmyzlwYmVAd0ru3KPNbFVqECzRHQA4y++mh3/Snb94YN4np0crNVXg9MnryVhhl54K8Ggypqb5R6Ymdyba6nrBekz9uXnv443p3+avA4ACim84XtB84zrz9YZ78mtP2r7mdW65SzBILxta0X3zWGejy1+22JrrhjJA2GT1Kh4AG44BzlN4w/HWnXTu+fQ9IVql2uvSScfAkOiWB+p53f2155J7kEdm/QBHy6Rg1+QE1B8BOEvx7oDHJ36P9p3b6SL5FdlN/UADWdaXfV1x2+tznsilxw6ni14xsBxwEniFVjgf1UZ3AOAsb0idkk/jM/tWn7lnqeDI6iHIsKCnJhczGvb83uUm708dbPzBw+zA4UDT3SO3Me7ptfnrAKCA4nc4vpFFh6YHf0MDmSIc+MuE3KyNQlsiOd0vUpcOuztp7W4jiI5uK1jHtG3Ix8aPmifAhmOA8xSuP8LdgXmQAy2ZHhStzkFO3gO1sCBhpAsgL9NJc5AU2LbNOuKYUWd2N33k7dVQfwTgLIW7A9spudxM9U6AVluf/wd8wt8Qt9qgYxDBwaEnIMfpqLlv8E9dmiyJWcmHHxcD2z/RHQA4x/ui3QFuzSFv6OfAsNOTsX1WDoz8CciMDoHSor7qAkQ4ZdxhsUHvzV8HAAWccYfjuXOvGir3B3rNSA54ctbPyIFtuDdxkb2dsSWXE+LMsONRsOEY4DyFNxz7TEMd0kBO332VA83MHGiE1yPb2WWLLpQDqD8CcJYzugNGkANGbg4M3WSpgpQWTcwOw0B+WZPCZv+D7gDAOV6f2x0Ic2AszXaSnwN7GodNn7vqGdVKgosOUY/OgRG9MX8dABTwgDsc6xxYx+YHsnKgSbFv7WWNDDLnCR+bA9hwDHCewhuOQ5wDt97YOZUDczfR03BokLpmcJH5AdQfATjL+d2B7VJqB3Hn/UQOtF0axFcEbie0Sk4RXCQHpugOAJzjh3O6A12v4QxUCEz33m1snvCQzIHhhNzk/GMrducDJTMHkp90piW9NX8dABRx1h2OZ2pLwN4M4IckZUsdl3PgXmoSx3JgzXnBfYQEj4Mg3iPInCdU/YyHw4ZjgLMU33CsNFY9buvB9YJgXKAu9UVz4HaaPevPQ4pFbLBwY5p+jNqS8GCoPwJwnrO6A750Diy9ZTQHZlKjLFWfQKzHRJNo5bFt1ubix20tWKA7AHCOl+d1B4x0DihBDkhngDbZ31huZ0Cbx1UWOK5Nn9EdADhD4Q3HMfEccPwcWJnlAXOXm3ruDY5mEgTxsUG5sOEY4CzF64/EmByQfcfNhjcgbtS7hedN/dslt8fHRhuzhb5P+qnbGWVMMxaB+iMA53lYd8CvJNiiqbo5gVQLaEjDVe8V66NLEmY6Li6UA/foDgCc46+HdQc6B0fFR5P6nc7YkWoinVuaOIfzOvvbE7OB3Qf9bts/6S/z5wFAAWdvOH4CsOEY4CznbziuP9QfATjPc+wOHNAdADjHi2fYHZj9D700fx4AFPCADce1hw3HAGd5QP2R2kP9EYDzPMfuwA26AwBneYbdgc6YfjF/HQAUcOaG4ycBG44BzvOgDccPcneq3xG/avGIaxioPwJwlrK6A41ICaJsTaKx3PE435QGkYoEE3f3wCi4RXcA4Cy/Prw7EK09fkvUP97IOQb0vc3vo9VHfGoLgaPvctBT/YZ1TgGTAvb0X/PXAUABH8l9aAWAZbTCoEdSoPQIjoGVKk/QI/dGvSditp9IEDiqWEFL1yzgZMm6/VkB2HAMcJ4HbjgWG+7nB+WEVieWJh+I7nVqrFcZG4lXqjKxQ3ecCVNayLe9S9cvLgj1RwDO8sD6I9qISBcSkYpElNXb98025AZtf7YnKWoc03aJOwmOBMTC3AJtQ/fqQ2fbojsAcJafHt4dYLcT6uu+e4NcdWfSkHq30V3RIDrl16DUj20QjwwkB+5pojsZ/aPJckSDfjR/HQAU8O5/6fjk3gnDAbnSWmdSiDBOf4K42bhBGUIVETdeupb5bMJdBM6BWc/VEdIi92GzhNs/seEY4ByP3nA87Kt7mI/0jUwC4+jYXmoWZ0hcDJB/qXGBmXJoPPReRqg/AnCWEuqPtGWqcOgmLj7G7lHmSaufcDgM1E2M59wjuJXLB+HQwKGVig8OFXnDowgpI+KpzoNyxiUN7pqgOwBwhn9Kqj/iqE5BREuVLDWGy5b66CF2t4LmOGzc+napEQOZQog4uUYpNKK/zV8HAAW8+PTQqbi4ESV3KrXCisWB2YTyliy1W9ItkX7DRKYdu61b7mGMVRdhIj2JSfEcwIZjgPOUtOF47tLCPPRl5UCPzAxgjhsimW1UVxRnK3+18y7/PiiZUH8E4CyPqj9yq5YdbPlE3u5TP7kGwc+BtjcyI/wWN/N78zAw98J1BC2Xdjy+IHJ4vHAf9DDU0qIzDNAdADjHvx/THRiocTvRrnM3pWbb9OKZKxcEmyYHTt6hJLi8OOzTeOZQ886lQfvWDSYuBucNXZb0u/nrAKCI78481cYMeNguo3dp9XPZExSI5cDUcXrqKsGEXPWW8dBfP9jxN1Cfxt+iL8uHHBrJ2iT3btYcmm3HdN4CB2w4BjhLGRuON/7FP/JvcbpRA3w/BwKeXm+kthU2zePQrEFq8sCRLx4OZMfSSF95bJ+3mgj1RwDOU0b9Ed3q2Ykc8Ju+p3YZbBJblLtTjgH5+FRtKRhKtnT1d2yeN3Zx0B0AOMf3ZdQfKZgDTZJdROrKYJ+7+7NxfLtB22xTmDdbYT4M1KbE+7M2G7XpA7oDAGf49swLcpmK5UBPbzSW3v9GLR5aj6kfvVQxdFQsTGgVxsO9mmgYnDWHgQ3HAGd51IbjQCQHGnrub5zKgfVex8BwpfceH7hrwEFAveRi4WVQokAspb8yPGuaEPVHAM7ziPojEZEcCCRy4G5CEx77bxsuTeVsP1LVhiQcJiPT6re6L7EIRirS9mcudwVGNNXvKWSD7gDAOf4opTsQzYEbvTRood5zMNuKt3d84l9sZ7L1WI8Jboj66mvu+D2De7XCMLXKQE0mNGjc0b2LgrZ/EroDAGf4+tBdvXF58wOezoFtn8g9yN5BIkcVLLlxaS9xwP/orqTJyzRgMgf6qlsgOw7pnP2Q2HAMcJYSNhwrJ3Kg055MpfnfkKNO/DJTqL7gwJ0Ebv+TyOCk7ZqlxGP/nTx0iG5bPIVzAxuOAc7w6Pojxqkc6Gz1ZKCe7NuuzGUC6QBIf2QduRiwNysFRkEfoM2fdcYGCA/dAYBzlNUdiOZAbH4gyIEINVOoAmHOo4Xk5cClaf7bSbBiQDYqF79aMPsfdAcAzvHqnP72MToH1rH9BbIsIZ0DrXuX+wCqd3DrUj+xsFiKlbueNPp7mvjXE+/5mw0Kz2ZiwzHAWR614ThG5YB332mH5QknkgCbeA609zJTuNd9kGY/vppQ6W76/BnjO+4q+Dc54R7Cok+RqkVHof4IwHlKqj/CJAe8jEuQiRzo7IIUkKsE4d1Pom7vJQpoYNYQzF1yZvy/gkHQRHcA4BzldQckB+64iYerAI1kDsx6OgVmB+4YqAuHmWQkQJOexAonwJQ/jzsF40JDgzG6AwDn+DlaTPhxNjRO35KE6dnCpO5owM06OTUQaC94JCDTCHse7bvmdiZNDobcrwhhwzHAecrYcKzN5NYEGS2+7aodBTG3DfnkSer9vtaGqM8fXXv99navNyYKqV66O9klQP0RgLOUUX9Em/EJPJUpjb7DfYTwuuTQ8zYyfcjvI+cu+ycPN/Ilam0Rm3l97jYEVwyb3EM4cUv1TgvdAYCzlNcdkHN1qjewlRYdnR5QTZyNR/lndZkYcPzu/4H/sYkERqvfP1W3fI/uAMA5Pj70voFZvIwqIZOB0/Cv/QmZ6tt7y8xrBIHFJnIp8U7GBxHdU6uJsOEY4DzlbDg+R6SFF3RuUKH+CMBZyqk/Ui9ddAcAznL97sDlNdAdADjHu//1NwY+H9s/scMI4BxlbTiuE9QfAThLaRuOa2SN+iMAZ3mO3YERugMA53jxf+jUipwnZ/Y/2GEEcI7yNhzXB+qPAJylxA3H9YH6IwBneY7dgSW6AwBn+S69G/jJw4ZjgLOUt+G4PlB/BOA8JW44ro0VugMA53iO3YE2ugMAZ/lWVQN5brDDCOAMH03DeV6w4RjgCXr7l3kAANZCDgAAcgAAkAMAgBwAgN//MA8AwFpvXpoHAGAt5AAAIAcAADkAAMgBAPj7e/MAAKz1/gfzAACshRwAAOQAACAHAAA5AADv/20eAIC1Xr82DwDAWsgBAEAOAAByAACQAwCAHACAH96bBwBgLeQAACAHAAA5AADIAQBADgDAyzfmAQBYCzkAAMgBAEAOAAByAACQAwDw11vzAACshRwAAOQAACAHAAA5AADIAQB48dk8AAB7kXkLAPZCDgAAcgAAkAMAgBwAgE/vzAMAsNbbv8wDALAWcgAAkAMAgBwAAOQAAPz6m3kAABb67fXr92/efPjuDftq3gcAdnn3iQI/m/cBgGVemRAg+s68BwBs8yLoEKA7AGAtv0OAmkQA9vI7BK/MvwHAQj+rGPj0wvwTAGz0HboDANaTDgG6AwCW4w4BugMAlntJn1GIBMBuf337f/3f5iEAWOnLV5km/AkdAgBrvXj1gejec+nz6y/mXQBgl5/fEi26nc72nujTv807AcAiH98Qjecdpe0Qffe9+QAAWOLdT0STO50CYj4l+vsP80EAsMCX1/9Lbm9tMkAbTYi+YsIQwBb//kS025r2H1j3/qT//BdLCwFs8P13RM6tafwxwx3R21/MpwHAs/XH30SDpWn4KbcrItQtBXje3n0l6o9mptVnuRkQfYtK5gDP1ov//oeoEZ8eTJkd/kX/+w/WFQE8T7+8JdoPTXM/Ytsg+oA9iADP0G+/Eo1bpqmf0F0Q/Y7SpQDPzF/fEk2appkX0BoTvflovhgAnoEv//wvud6x6cG0uwnRj1hXBPBcqG2FqXVDp6y9P+nza6wrAngOvv+dyGmbxn2W7Y7o0w/m2wDAkyXbCqdmW+H51EbEl+ZbAcCT9O5HWTdkGvWDLGVdETYiAjxZL15/Tm0rPN+oT/QV64oAnqYfPhVbN3TKuvEnfcBGRIAn6OV3RKvMbYXnG+6J3mJdEcATI+uGBjemGZdA1hVhIyLAUyLlyPuH89YNnXIzQYFzgKfjxSvZVnj2uqFTZh42IgI8FX458vKhwDnA0/BbpBx5+dqyEREFzgFqLVmOvHyqwDk2IgLUlt5W+Nh1Q6dgIyJAjWWXIy+fKnCOjYgANaTKkT9oW+H5pMD5JxQ4B6iZ4+XIyycFzrEREaBOHr+t8HxqIyIKnAPURKFy5OVTBc6xERGgFn4paVvh+dYocA5QCy/PKEdePilwjo2IANVS5chL3FZ4PhQ4B6iWrBv615nlyMsn64qwERGgIg8rR16+mefS59eYMAS4vp8fXI68fNsNNiICXN/jypGXTxU4x0ZEgCt6955ocuV1Q6csZSMiCpwDXEl2OfKqpwtNgXNMGAJcg5Qj36XWDXX7m+NribaNQyuSFbvmyQWI63NnH6TA+X9Q4Bzg4nLKkQ8HRH1p2flhwJ8gFxd0xbKu+Vdck6bhaGM9ds+egFAFzrEREeCi/pBy5BnbCiUG1A6DJh30e6Ju1Vf01Ydu3XvpFSyJMu5t0NRZot32yW2ax8W1VihwDnBJueXIOQYmem3xguhePYi4JVd6CQPi0/t6oBv3gQbqY3Hz2HvbHC7nB4EqcI6NiACXobcVZq0b4jP3yn//PdE+mRR7cvj/A+I02FNfjfr31JM3CS1amUeK9DIecG1SbUREgXOAC8gvR950SfX1tTsiJzEFOHSJh/2SAyPSY/5Zn7L2JrVUYISGPDR4yCIFKXCOjYgAZfstd1vhcEFubKfRvE/jRBCoUQDnwFYFAmvRRL1NSOZAp+X2j1+FyCMbEX/HRkSAEuWXIx9OiQcCnrFzBPfmp/HWO5MixtIfmJvJg0Z6FkH4OTAy38/zxsH3TkTLSVLgHBsRAcqiy5FnTA8KbvQxU0mCPg3CIPCWLWVCN+rt3bIzm2QOC4IcSH5TcX6/AAXOAUoj5cg3udsKexOHT9mH1ia656jdjwzrTTsObTojItVz0OR7H5wFn/M3NPAajtPZ3es+QIT6rDNJgfPPKHAO8GjfF9xWOKV+ZF1BOzK7xy294Xk8XifV1B3nsO3rQDDkTL8xjxX9dUsz3TjK6YkUsZUC5z+YPwUAHuRj0XLkTT7NHxvBD1XTN9cK76k/V0OEKfVaIzXyX3KXojWXuUh+h/ok/go1y+ClZh3PcisbEVHgHODBipcj5zP8zjzMtJ7SgEfrpHr3N2SuGnQm8eUBnAPB9YLZimgvlykPHA7nzw1EqALn2IgI8CCybujPY+XIN309vmfc1FbmYWgSLA6cOdTvDujgyrLDtktj826i2IKERiQHeKCg+wWdGzc66/gAsq6IUOAc4AFOlyOPjemz+Dkw489cdgbUbvHo4NDe9M3Fgi5RbOzPaWISYr0PYqDTaU/MIsQHUwXOsRER4ExSjnyVeW0vtBypQT6P6Ik25mFrQI551Lozvf/ulFu/DAJaHe4USPu+8dSHlvHVREPJjp0kw5zHEJGdBUMOghO/yyld2YiIdUUAZzivHHm7Txv1VlYa3bqUWHA0cuVSoVw/XHY62/GARxqe3kfg0ULe+PikzVZr2aMQ32nIP+Ho9EMRUuAcGxEBivry9axy5Hy2Vo1UGit/0Yjc2Lm7x21bYmDtODIpOJMZgVty5dvHNxvNJrSgiUuDbnsS3VVwx8ExXxX+dfI1uZeBAucAhZxZjrw9oIU0Uo6BvroEuInvN1gv9Eh/3ItMNuhtRgPpIQTu+OvImbs8BhjyR3XRAllj6J6odFSYKnCOjYgAJ6lthWfMyi1dHQN3rvToO5IfG6KG+pg2Uw16ySON8NrDTrKhG18sPKZ7WVd8QyQxcvDnDniQcHRlwllkIyIKnAMcd2458hn3+qXcgKzb2/Dbdl/+z0GQ2pu4p0mkj9GkyYxHEFPzT9Ekaqv9Bc29/HNIZgvCJLyWWAYpcP47CpwD5FLlyDO3Fea4mZA74hRocGdeJvaGPAKXVtx0uVNh6o4t1fYAj2ilH3gyQbB1+aS/Ci8N6tmB2L7jvZ585H7E464ZpqgC59iICJApuxx5vm5vwJ2HdnfEZ1hdp2g4oL6Oke6Y3ze4lzN6cpVBX0YRnQaN27EShdyxWMZyoE2ufM+xCpZySYFzbEQEyCDbCnfFpwe51XNb51GA9AH0RN7tgAZy7m7zt5kduK1N1brgBvcBeFiutxBOzNQBdwgG/qIh0XKlvUdzgLsL/I87XduwZLIR8T/YiAh18eX1619e5nn1+no75XLKkR+13qvrArc7vTj4ztUFyYZ96vMHtrvIhMC9afPcyzcriWWxQLhGYMthwhESy4G2SyMeLUSnHMsjBc4/ocA51MNfuq+c5435tEv7o+i2wnzDnblKsOXRgt6orAYACg8B1HefDYJe/pZkqtB3N1BrEGI50PHI3Wfd5aActytsRISaePfmzZv3ryPe82nKPOQPfTWfdlm55ciLG278JYBrGS2o90WszJUBbtl+s25yzEUvTCzlA/Ec4C8LdiZewg0nFgqcQw399ZY+XHkqW5cjf8wV+vZBiozsVR9gzQ9TFcmlzQ+8rtQt9u9ywg85fMwYIZDIgRsOlwvMDgRUgXNsRIS6qSAGZN2Q2uf/YNLKTQokNwj5lvf8fhpzt8D0OrjX0G9PU/uJ4znQltolE/2NLwQFzqF+OAY+X3eJS3458jP0/BTYcmegn7MKqbWRHsBYT0JwDLi3cpkxEQTxecI+9UcuuY+btzhFCpxjIyLUCMcA/WMeX8VfUo484/R9LtOduOPzt5PbtZjLkgIeH3BOyBVHad3c0s3t0IxoDnAETIfq3mblLSvOJL8YCpxDXXzkGKDX33xzrRJaR8uRn2t2s+EUGOcuSW7zaXd6O9/J5cE5f6ae/rvlPkIv8huEOSCfr65CbrmVlpFVx0iBc2xEhFr492f6/JZz4N2H69yH59XRcuRnaLdad3s51ectSd7OVbVi1eCHo62sHPCnC6VAUeTL/PsbLuXzZacCk2JGNBg9agrjlLUnBc4xYQhVe8Fd9N8/vucceM2H/eWvaxctR37CDf+yWl8tIs4yl4kBGptFSp60/PBTVb8/6BG0pJSZHkAMwr3LMvlIyeomJVMFzrEREar1kZvl+xffSA5884OMD95ctHKOlCOfljL/pgf9082xb3ZHtA9a/tLVRYt923FkhUBTNhvPHE6B2EhgvUnUNrkEVeAcGxGhOrLP74OsIVY58M0LqQRC315s6qp4OfLT5o7XPLkc+SZ6VaAd2WSY1FT3MGnHU0DML9sb0KTA+d8ocA7V+PLPZz4TqeNP54B5F72/yFq3F6//Q3+esa3QIrORFDjHhCFc38evfPL/YPa++TmguwgXOSZPlyO3GQqcQwX+eP17rLmHOcAB8S1/5HPJa93UtsKLD7WfMtmI+BYbEeGa1Ek/cs+tv+m9eSTkHgKlXkI8rxy5rVDg3CbSAq3z/5S0ZOBZm3l/YmxgDTJvKxZfKPDDhSuPSOmxfz1uh/GzJ3c5QNEya9QkB8Sr1z+YCkSh71+/vsjVArlmiKFBPhkU4NqhRWqUA7JuKMOF1hRKaXJMFWaTuyCiqLlVapQDb+hbU4Io9JXoYpVyZE0xLh2myUVDrC22TK1yID0r8BfRBbe9vPpAfz6qBFGO9qnvObt59ORE60I7jmQREW56Zp3654B5dBGy5/hfpZf+m7k0Pj73MCK32I2LW+Ts06EyX/RlxJS/vfnhZFEx9h7bx+4c0GsJHlWieKfuRyAW/qXIG6L+0R7BbJJZtkwkxildSlc7bckNU8jhBqtvqVgi2WR02a1dUE+254CuSfaIrcfSJg0/B6RqwNGSIXIP9HFmE567cs/00DB2syPNocGN/L6znkv3+l3lkE3HqE1mJ+SA3mvw4HVFpjPgbdQeQbF2qR+7m2nS1qXNIH2eZ7OpufuRj3Mg9Y0WQemipX8T1DLIzY2wbshWyAEmNcv/fGRpshb1zSOP3O44s5kbDRrMbt3MiiJr7phHS5xyDphHociQQ903vRx3/0OE2uXWQg4oal3RAzf3t9WgQtUQEny29/hfsbuTxOiz+EhKFWeQcmXhL5KVAxGjsu5+OueOSGSDB9gGOWDIPc0eVrqcT+Hc5pfmXkWdez7by+3Ks5u5Kkqq+gp76mf+uBuXqLk184WRHBhmTD3e0cI8ehQpWo57m1mtVjmQyXz08mRd0eIBV+Ud1a6bpsawuYfhekr9zMnHYZ/GqkXPFuRmXl1sT8YzdVOUhIzUaJRx+1O5icmndASDTeqfA1ccs8o9z89fV+SofrzJAW7/uqsutzvO6BGsBzQwP4GDILvqKHcGCubAWN839THkpmafce9z29UqB8LqIz4eF1zzDpxqXdG5GxEddZHwoHoFcpI3XfpW4qYESit6EzMJgvvs2NmavkRkXJCxSHFubqP+CDcTovdYN2S9GuXA75S+r/EfF9tnlOPdT2evK9I54Kkc4C528MVtbmKrWJdgveFvHlkpJPckiM5OrlMJdHSecDh57GXD1gr3MAJRoxz46c1/zaPQXxfad3zEb7IRMWeOL5POgR4P1WccA5FVynLfMpqOggUAcgOCWLFyPh33Iz9s5oyT0xPHcoCHIEdXK50ktceuc7MYqLsa5UBtyL2Pd4kFvkeMVXPckLfls2uvHX7h7VLub9TXHYThSFIhdblfvobGd6rPL+uREy37SA6s9c99MLVuCPc4BgU5kOHFfz+cUdN8oHrne5Kbmm+4dxDRvF25MtLf3ql3T1rLQyvOax3UfY520imQDkN4VyORnwOzR8YAthVCBHIg05ev3GoLbkR0SZo6jw7a+8VMcmDqKNyouaWqTv9WYqDvrbnXkOSp63a0UKmz3qXXFZtHSbtH3eFsKeuGrj3igvpCDuT441tukoU29hLJUOD4YH3muOqC5MFx7s2GBLFzHPmq7n7l9wIO3DUwD0VuDtw9ZuVAm2PpV6wbghByIJfc5GCRuRYohpuqNGI1OsjfXLQ+su8oZjled5qmR+E4KyLzSJgVi8KhosOWlC13Sj7h1gQQhRw4QtYV3Z9qwLe6f68EI4kHN1IlaxWRMDsY2PrBKwdQjhwyIAeOUQXOT2xEXHL71Kdr1x8a9MztU7te0V5AXPvGzCK29qu5eSTCGYEhrcyjM8m2QpQjhyTkwHFyg8WiBc4H/hqijdlzNCK3cTxETphNaJK5lGFGrnl0FlWOHOuGIAU5cIoUOC+2EXFArVlzzF2AudkMsCc3Pnmo+w0JySmIZTg7OeJxSXaQjOn8HVEoRw55kAOnybqiIgXOB9Reu3Tgs3Vfby3uJyf1zTg/Lvmdx33/PdwdKGVfsYJy5JAPOVDEqw9FNiJOuElv1GTehvp8Gm9T8qQ9oZEZ6vtuKDnxvwy3KDR0ebNDCcVG1LZCrBuCHMiBQr58PV7gfL3kmJAmfauKkuiBwcgvTRLQSw+j0gsExsEUYNtVRY14cPCYJUMKypHDUciBgvIKnK9brWVjTDSRXj//eyrrgHhgwCOCRWo7QYEc4O6AmTCYjXU54tmK3AeUR4m4XeEW5nAUcqAwWVeUmtSTcoJi2uisVZMekct9+c30prNNDQuK5EBY4bRHUz1HOOxTsN7wAYYoRw6nIAfOIAXOd/ElATwO6G9G6treUE0NbF1ZTSTN9pC+xn86B25UjIgWqS1K4ia1UXG9KnoxE+XIoQDkwDlevJYC57GJvUbQstt6OmDn31wkY8fByRzYTvwWP5zIlQdjk7ydSZN7IObhcShHDkUgB85zpMD5XFco7JrBwK26ZhB3Mgd2NNFfNFuZuqfKbOqPEYwuFdpnhHLkUAxy4Fwf8wqce7Gdgp37jJZ6Kgf4NK8vSsx21A8GINtW644StzDzCxge00Y5cigIOXC+7ALnfM5udFrBmGHWV/P+s1b0PD6gjdlx7GtEc2DbN92BmwGRs5HFhmYaUmRlzxGqHDnWDUEhyIGHeCUFziMThnfcornJ3mQtGIwuF5R7FKeYjzE+f+vuQGQPo8thIPdUDuudFzLz/oVy5FAYcuBBvvzzOVrgXLfbjVo4LGfxgBvPgQndmXWEvpvIjUzb5M8OyGKinXfXinQ65ifuoRyHcuRwFuTAA/0lBc6Da3dTHikUuJAXqWputKKLDG7cI0sW7wsVR1JQjhzOhBx4sN9+DWuOdzN3B6c4TrIxDz0v0mHIuFfJ+VCOHM6GHHiEXwpuRLymdQPlyOFsyIHHOK/A+TVIOXKsG4JzIQce591Xov85Mqq/LtlWiHLkcD7kwGP98XfRAueXhnLk8FDIgcf7Pmsj4tVtdyhHDg+FHChDoQLnF4Vy5PAYyIFSfHn9mf48UeD8klCOHB4FOVCSdz8RTc5Y8VcmlCOHR0IOlKZ4gfNydRcoRw6PhBwoUdEC52Xaohw5PB5yoEwvihU4Lw/KkUMpkAPl+vKV6F+ja00YSp0ClCOHx0MOlC2vwHn5UI4cyoIcKJ8qcF5sA+IjoBw5lAc5cAk/pAuclwzlyKFMyIGLeKHWFV1uwnCEcuRQJuTAhRwpcP5oKEcOJUMOXIxaV3SBjYiyrRDlyKFUyIEL+jmzwPnjoBw5XABy4KJkXVGZGxFRjhwuAjlwWYkC54+EcuRwGciBS5N1RUVvTnycbCtEOXK4BOTA5b2MFDh/OClHjnVDcBnIgWv45dNjNyKuG4Ry5HAxyIGreGSB8xnKkcNFIQeuRNYV/euBBc5RjhwuDDlwNarA+QM2IqIcOVwccuCKvv/9/ALnKEcOV4AcuCopcL45Y13RWsqRY90QXBpy4LpkXVHxAucoRw7XgRy4tuIFzucoRw5Xghy4vt9+LVLgHOXI4XqQA1VQBc6PbkTEtkK4JuRAJWRd0ZEC5yhHDteFHKiIKnCesxFRlSPHuiG4HuRAZWRdUVaBc5Qjh6tDDlQoq8A5thVCBZADlZJ1RdEC5yhHDpVADlRLFTgPNiKO/oVy5FAF5EDV3r33C5xLOfK/UY4cKoAcqJ4UOJ/OUY4cqoMcqANZV4R1Q1Ad5EA9vPrw/2JbIVQGOVATX/BKQHVw9NUFXgmoDo6+usArAdXB0VcXeCWgOjj66gKvBFQHR19d4JWA6uDoq9Kr1yEyb19jwzFcHXKgSmr5UBIqEsLVIQeq9Dt9azoBfn/gKxH6A3B1yIEqvaEfzCP/lfiL8IrA9eGoqxJyAOoBR12VkANQDzjqqvTGTA3GmI8BXA+Ouiq9od/f+Ej9/1fkAFQAR12VMC6AesBRVyXkANQDjroqIQegHnDUVek7rCOCWkAOVClzXTEqFsPVIQeqJPuMXhok//uB34H+AFwdcqAu8EpAdXD01QVeCagOjr5K/GDmAvJhdABXhByoBHIAagU5UIl3L+M3LfmB3sRficTHAS4KOVALqRwAuCYcfVX66xdz2kcOQKVw9FXpNX34Rz1ADkClcPRV6Xf6oKuS/kBvg3rFr39W7wK4HuRAhf4g+q9+FLt+8F6/D+BqkAMVek1kzv3R/sB7kw0AV4McqM6LT0Qf9DoBzA9ApXD0VecV0a/0VgUBcgAqhaOvMtwdeP/ib/rwGz9GDkClcPRV5jV9fvcNBwH9+AU5ANXC0VeVn/XFghf/EH1+/2MyB36TXgLAlSAHKvLbZ/qkFxP+oe5i8EHXLVc+4OIhXBdyoBJfvnIvIDjlv/yaLlD2vfkYwBUgByrxhfsAv5jHyh8vw/WEink/wDUgB6rx4ke9sSCEVwKqg6OvLvBKQHVw9NUFXgmoDo6+usArAdXB0VcXeCWgOjj66gKvBFQHR19d4JWA6uDoqwu8ElAdHH11gVcCqoOjry7wSkB1cPTVBV4JqA6OvrrAKwHVwdFXF3gloDo4+uoCrwRUB0dfXeCVgOrg6KsLvBJQHRx9dYFXAqqDo68u8EpAdXD01QVeCagOjr66wCsB1cHRVxd4JaA6OPqq99WUKhdfzfsArgk5UL13n00IkNzpDOD6kAM1EHYI0B2ASiAHaiDoEKA7ANVADtSB3yFAdwCqgRyoA9MhQHcAKoIcqAXdIUB3ACqCHKgF1SFAdwCqghyoB+kQoDsAVUEO1AN3CNAdgMogB2riK7oDUB0rc0BNykEB5gmD5w45AEeYJwyeO0tzoAMFIAesgRyAXMgBayAHIBdywBrIAciFHLAGcgByIQesgRyAXMgBayAHIBdywBrIAciFHLAGcgByIQesgRyAXMgBayAHIBdywBrIAciFHLAGcgByIQesgRyAXMgBayAHIBdywBrIAciFHLAGcgByIQesgRyAXMgBayAHIBdywBrIAciFHLAGcgByIQesgRyAXMgBayAHIBdywBrIAciFHLAGcgByIQesgRyAXMgBayAHIBdywBrIAciFHLAGcgByIQesgRyAXMgBayAHIBdywBrIAciFHLAGcgByIQesgRyAXMgBayAHIBdywBrIgYhWz7s1DzudeaNrHh3VvAm/5Km4GfcK/W3IAWsgByLaRCPzsNPZEDXMw2McoqV5WLG2eXvajmhnHh6FHLAGciBiSLQ1DzudCTkz8zCiOTcPfDtamUcVm7sb/fuuR62UMN7YzKVpxp+WhhywBnIggnPAPFJ9g4zz/IH6wWnXWdzw/ze00f+sGvdfnLU84L8iTX2KsSzahUEOWAM5EBHNgR5NzaOodp8GpsuwdmnFDzfk6X+ndFvNu1ar0Ik3pkU0NA/Pck80lS8c9h0xoYF6q/T1p2gbmhT7rZAD1kAORERyYDaJTBVEtFwa60Z0QxM5/ebkwLox0Cfi/n2hKbmIh+ZAZ8Q/LZy0zA2oLQ8LvAz71JwBcsAayIGISA40yVWd7JQ50V492NNGRt4L/ebGi7Xdm75kwMoZy5s7886CHpwDnRuXXBmrKA41zaOEnvxOWQbmEwLIAWsgByIiOTCOnTMdx7yb8VlXriNsTeMJtPSHlQOR66l3rO8mlDtyyPbwHOjc9mlsHnamlJzS1Lins5DkSlqEX+pDDlgDORAR5sCNadwB836xp/6202nQSkXEmBwVFE7kst2SO+hBLAy5T1D8kh57RA50uo58qZqU6Ac/dRZb4cA5lvnrbCgSdhpywBrIAeWgZtNWRPKm3VlPdG/f6JFrPk+sd9zW2n5ryhqGj2kQacnbyEm6iMfkgGayKxCd8eQ/TY9rkja0MI8CyAFrIAeUjWkxSqtzH59Rb6aGzuuB35oycoC7A7Gh+WhwOOeqQQk50HecMbkq2xxnEGvgG3LDNRJRGRdAkQPWQA4oS3Xe56E8/380TDbkdA70gs51Rg6Mi16XC7Sjn+/nwCyj+97NmLzMXtd8E6xv8qINfJ67ShI5YDPkQOiW+wLqrSttaLZq+GP8dA50tv68fDoHuB1nXHJcONHLBnPH4bNy29lx1+IgVxgHi2BWT+XA8F6uOIx7kYDYmk/0f7L66lsey/AvPfIkyeZe+LuMgu5/I/Ib8qhAJjeyIAdshhwINbhJ8Zl4NlUne26O0lZFKgdaXrB211w3ZE1Pr9K7i65ODmxi32Ovpgxa5Hba0rj5J4ZXFSQHWpwCA5ffuQqGCPIumsr7zPph+eqW/Jv/GrNYgSbqI6IRnPc3dDCP1M6CnKuJ/CHkgL2QAyEeFtBAOuNzaZL34UDa5EBTVgTwcJu4q51JN6T4rKKPOxvhlcWtqxYVcIvfTtyD/EjOE78d8ntb7uSGG/uQm61/VucWP5VvsOWfrXv8/Hmzfv+u3elyI3achuftIzOC+6BTEllIcE9qruDg7NS1DrF3zEcd5IDFkAOBJUkQ9P3++YDuzSMOANXyOAeUfqfpyMXChIWjz7vR1hgxjrSzEblyTueWvB/4w3vujegJAX7vVFYsC264+p3cSVmYMQIP8dXQYEh0CHc7iGbk0t842EMQPuIImcg35u8aYcYryAGbIQcCYxrx6ZJcHQR8/g7amKfb11Z1/3vpyYK4cfpCvDBtXxnrjOEWH9nx41+CkPf6P5rbuh4u8FcHgw2zP4A/NglWDyrRHJiQHzADvyOy5G+svsCLrCSa+L0F5IDNkAO+JY25Za3HJgg81Sr16NzkgGY6B/n66QYleCzg98/bpBspt/jIlQVOIbUVQXoJ6h1iZXolTtg7kQCQ5iw5EH61UDnAX86jF0f/X7g0lvXN/Kc0B3oLQfQKwsBPIod6+kEIOWAN5IAxG9MNt6zOdkD9Nf9zwufkrqNPwokc0P+Y35vxgLYPTtc5OdDZBd+lYRYWcZMNp/I7M9M54PeGE3sLffF/bc7kWl99Av+2iZarfk/+8kwq0vRlx3gOmN6Ck7rwgRywB3LA8PjkKjnQGaoZgpE0VQ4DNememQPJ9qbeKXLGBTKu192LYC8jf4vo7L2r383vDdu8We0bHaX4wwr+bRPXJ1X7Xrda6RUFPACIdB2QA5CAHNDa0ghVDqhzJjdVaUw35EpXPTMHuHNvugJsQ+EO/33eBMLAtLSlv5eRW3x4DUE+rlKH3xu2eZMDnCF+N5/1VSeBf9v49ECsfR+DHIAE5ICynsr5X+eAOJgh+li9zcyB8JNZK9L2Gxkxo3jmkxZ+dUBu8cHyAGZm6mLvNTngX6rwyTv5F4imCEMOwAMhB8TMUefgoGlvXVc3RX1uji21O5kDo3jrDm11wzVvGH/3aBd+GvQHUjmQSAzlSA40TMchEBlUsMwc8HsrEcgBayAHxLKvmmDQtO91i7yde2p33nk5wH34cJ4vZqG+zyFYX8CtO7xsGJ0fSOVAus0fzQGOtbh4iMRzwPwKyAGbIQeU2Z25Iq/+sSB9qU1xt2fmAA8m4tfzZndmd9BSLSGYBtN73OIjM33+NYGsHJil5gKO5oCplWTcEJlfwPBoYvoJclXRTFUiB2yGHIjwm7Y6nbrOvTdvcfNo8HlcdQ+00zmwTJQiO/h7e2YTbs234YogbvHhSgH5Mn9VQSoHOubKRVQ6B3ReqYFMtE3HflMR22XtRxFywGbIgQi/wSzJufOrix5oF59C83OgG8+BcIePdAimkRPw0A1ae48WPOYI2j63+MilAf96Y2YONKJlA3pqpVNWDvT4y93hqRxYeqanwEa6fprkQKqOInLAGsiBiKDBhE2us+WGuop23/0ckEYcpd6p8Zl9HATBcBA24S65w0lYN1C+RXCzlKafCZk5sJ2EtyAyVzOzcsCTyuqHUzmQKWMnInLAGsiBiLwGM4gOznumZSZLGEaygwfgpDYM8qDf6/s7FoRD0dUF3OJ7NNaNnr8k62qinwNyFUJvg5YNh2oeMjMHWn2piYYcgPMgByJyGkw7bJjDxoTIbUTbfKaRKxMMquJh5A5I6qQfuZggLX7PfYddz+kTNUzPIDsHJChodb+RUgV6qiCdAyuSzQT8yz0gB9bIAZshByKyG8zMCU7hB27eK2ni95G2nWm7UXcwIBqMonP1M35vGCKqxXuy25k/L+hy5ORA51Z/Io3Nhb5UDqzlR6p7mz0gB7h7k1qOjBywBnIgItlgDr1l605uTKT383SlnjG34jmfw2nQSEZBq+XFZtpaN96hlThjmwWKhmnxrTuvFb+wl2PdGnlzfwIzTXoMukhB/IIAUx/P1lbThR6nW+p3QA5YAzkQEbsEwJamFZlLduuBXwtkuFH1wCI3ENQrd1I7d5PmsZVDsTP/462DWiWb2K/G8WWGHFmkGpsSzEMGkAPWQA5EJNvlTJqHuwjGzcPwKsB2tFCNJy7/XK3NpmE3n5WcA53hvWnvsQUP0fmNDP6NmXbprEAOWAM5EMFj5HiDGTVTHfvQWuoDR4yOfK7B/fXoaKLsHAjEawvxj0nvRA41pMjaPGvqEzlgDeRAxPYhtykvbt1L7Dy4WA60W6d6JoUgB6yBHLiS4VSuIUYmCdnFcqAkyAFrIAeuZMgp4Cb2ISIHoCaQA1cya92lBh1Dzyt0vbAqyAFrIAcgF3LAGsgByIUcsAZyAHIhB6yBHIBcyAFrIAcgF3LAGsgByIUcsAZyAHIhB6yBHIBcyAFrIAcgF3LAGsgByIUcsAZyAHIhB6yBHIBcyAFrIAcgF3LAGsgByIUcsAZyAHIhB6yBHIBcyAFrIAcgF3LAGsgByIUcsAZyAHIhB6yBHIBcyAFrIAcgF3LAGsgByIUcsAZyAHIhB6yBHIBcyAFrIAcgF3LAGsgByIUcsAZyAHIhB6yBHIBcyAFrIAcgF3LAGsgByIUcsIalOQDFmCcMnjvkABxhnjB47vBK18QP780DgOtDDtQEcgAqhByoCeQAVAg5UBPIAagQcqAmkANQIeRATSAHoELIgZpADkCFkAM1gRyACiEHagI5ABVCDtQEcgAqhByoCeQAVAg5UBPIAagQcqAmkANQIeRATSAHoELIgZpADkCFkAM1gRyACiEHagI5ABVCDtQEcgAqhByoCeQAVAg5UBPIAagQcqAmkANQIeRATSAHoELIgZpADkCFkAM1gRyACiEHagI5ABVCDtQEcgAqhByoCeQAVAg5UBPIAagQcqAmkANQIeRATSAHoELIgZpADkCFkAM1gRyACiEHagI5ABVCDtQEcgAqhByoCeQAVAg5UBPIAagQcqAmkANQIeRATSAHoELIgZpADkCFkAM1gRyACiEHagI5ABVCDtQEcgAqhByoCeQAVAg5UBPIAagQcqAmvkUOQHWQAzVBP5sHANeHHKgJvBBQIRx+NYEXAiqEw68m8EJAhXD41QReCKgQDr+awAsBFcLhVxN4IaBCOPxqAi8EVAiHX03ghYAK4fCrCbwQUCEcfjWBFwIqhMOvJvBCQIVw+NUEXgioEA6/msALARXC4VcTeCGgQjj8agIvBFQIh19N4IWACuHwqwm8EFAhHH41gRcCKoTDrybwQkCFcPjVBF4IqBAOv5rACwEVwuFXE3ghoEI4/GoCLwRUCIdfTeCFgArh8KsJvBBQIRx+NYEXAiqEw68m8EJAhXD41QReCKgQDr+awAsBFcLhVxN4IaBCOPxqAi8EVAiHX+X+eClI/f+jeR/AVSEHKvczhV6Z9wFcFXKget+ZECD69MK8C+CqkAPVCzsE6A5ANZADNeB3CNAdgIogB2rA7xCgOwAVQQ7Uge4QoDsAVUEO1IHuEKA7AFVBDtSCdAjQHYDKIAdqQToE6A5AZZAD9fAdugNQIeRAPfyM7gBUyMYcUJNyUIR5xuC5Qw7AEeYZg+fOzhzoQBHIAWsgByAXcsAayAHIhRywBnIAciEHrIEcgFzIAWsgByAXcsAayAHIhRywBnIAciEHrIEcgFzIAWsgByAXcsAayAHIhRywBnIAciEHrIEcKIm3NQ+eEeSANZADJzTHo+wW3iSnYR6yDU1uzcPqOBNnaB4eMdzfFcws5IA1kAMnbIgGM/M4pkk0Nw9Z0yX3zjyujENT8yipGfkT+Bfvr83j45AD1kAOJM1XsUYyoUH2OXZOrnmkdKdE9+ZxVTa0MY8SehT5o/bkFuy6IAesgRxI2Lq0Nw/FnGhpHia0aGAeaesx9czDi7ttZWbThiIjlSiPOzVd83jWp4N5eApywBrIgSRuMyPzkG1obB4lJXOgs/bMA1/b85IZ4nlt8+h8c8/zT+oDSv4sZZP9brbsU990ApZERac0kQPWQA4kzcbk8rlz6yguDfQDzXyOMDkwNBW8oprqE2QgLt8pKvjY+bZ9Ir8X4OeARyvziyk8hjGPlEnk7+wOyNXTGSsatyKWXiT1EpAD1kAOpLRdGs8y23fsC8Mc6Jt2p02iOUAr/dD3iBzY83fzc2DktdRb7rscpT5JG3IQyM9umw+F8uYWkQMWQQ6kcevyuJfv8dlyQht92hRLL9rtjowL1sFsfOQKguQAZ0J8LP7wHODufJgDvqH5zcRywJ/A/43Mv4X5NIWDQGYR97TyovYU7eTEIQesgRxI45HBSrfsNrlZY+m2s/O8DfU9Ty0haA8WJgi27uBGPxJNWt0nRgYPzoH1hHrpHIhoD6i/Ivmt8mYghjKNeUMU/3gTOQDIgUxtf+J/LxPw61ayZbXk3KxJI+L+gwkCbqqR83+TBrOBjDFCD86Be9rxT83PgaZLg+GGvNkiPwgYx0n0aghr0s48SkMOWAM5cASPpblNcftLDKGH3l2rNaJJq+WpZs1BoC7czybRSw2SA/LF0cHEQ3OgRf3tkRzY7khWCMj1gvWK+vk/Y0duIiWaeWsOGHLAGsiBI/bq5MlpEOnsB6LXDTd6lcEofpFRcqDTiLW8WA5sW4dDK7myb90aHVrJwchsyl8XyYHE+oFmn9TaBXXdcMa/zCLnyqCa+YhDDgBDDuS71WPpYfZ5OJoD3P3ndrh1KbZQT+UAN+HIyCCSA0M+h4tJdG5RWrRwe9HRBI83ePwRyYHY+oHWir+J+sFmPeGIqH8Ik+Cg5wznS/6FaLwNv/Favh1yABhyINd2oMfSnAOxRmlEc6BzK827kWhSKgckTcJGG+ZAq099x/N2U6KG/+23C27R/M49v3MaiZS2K7ON2Tmw5BSghu5V7M0vcMvvczf+1QKdLPJbNBdum79LQL4JcgAYciDGrAFw+Gw6nBDt5MpagxuMFht3+zmwmZqvcVway5uB30Z1DvDJPBwZBDmw7dNKteoZf3szqcBdB3+acd6PXqlYqXdn5EDX4y+hhX9Jwgnm/m/4lydabeQLHKfBv7v+kmGnKx8wkANgIAdiTANRK2/H5nEodoUtyAHzwVAiB6IjgyAHFjT139egiW7y3J8PrvhvIxP7I/31qRxoSQjQOHP/w+wgywkiTdwxacO9G/VW3iO/C3IAGHIgxvOWciVAfUKbJgvpBfj9gUa03kCYA92WnI79FspfFszhmRyQkYF/IdLPAT4rB8136+rtQfFrevxLmJHB0NWX/NP9gYNKgaasZoi7l191vosuftCtHjkAmZADaS2aqLemFYUtJ0ZyoO340/3jgTnRR/g5IMsKTJv2c8Cjvnqr7PRlBm75kSsLs4nfQBdmF2HGuKAnYSLLl1PUooDotAZyAI5ADqTFZgCP5MDkPihBsMy6VhfkAI8MzCjAzwGHFuqtctCh0Ij/WH/BL38X/bUZOaAs4xuHxCLduPNywEMOAHIgS7EcUAv+/coj4+QyPRHkQOfWNSMDPwcGtDdNlnlE0q1YRLNBTRvIm+3EL3uUlwOt+LyF2KRLIURyQE1qOk4fOQA+5EBakRyYL+Qi/3aux+b3nAhqYK4t5HpDNAdkAY8aGfg5YJYJBGRAMInXM+LBv/QDNsG637NyIPJxLZIDAeQAGMiBNJUDbc+sv2ndEJlHB1NFpNtTl+X4szLH5kw12EgOzMZ6ZBDmgGMyQ5PP9/sMxp26ajH3LyYcy4GB+S6B8dEcMH/NGDkAPuRAmsqB7Bau2xI3Udrc6LRocovqkTtXTeue+vLGFA6K5IAUNZBW7prvMM6oZTiO7/jpqVmDQbhNeEPUMBWOEjmQ4VgOqLeYH4AI5ECayoG5GUU7zioYUTuOGaqvVrf6s5Rwe5ETa1TRHDAjg4Fpjfv4XIBiLhv4dqqGiWnWIfUDHtcfUG+RAxCBHEgLW7iSMT8gp/vws+79qkNrN7YjKZYDPDIYzIIcaGRUAfKoH73Qt1LdA9OwRX5/4Mz5AfXWf8/mSJVl5IA1kANpp3NABJ81D2qNHMiNtuRYDsjI4D7IAR5ZhGsFzNdw/z5yB4R27F+itHlCNYTx5wcyPjWAHLAGciDtvBzYTogm97IguOvGq5DFc0BGBq2VaY08lAgvNPYGem3hPjow4H9EM4Xl5cC8+PqB2VDyJSCjGeQAMORA2jKVA377iwrS4rYhS/knjfY0UZU0kQPc0x/4OSCrD/zMuPHXGHMT3Zn1ibL7KFbrkOXlQOaMZmYOzBZep+04Gz3McBz0B8BADiQNZePQPrLCt0sUqzFoRHsNbbXvL7JNSEnmAPcX/CsO0i5p35p1hk3+cf4IfUQ0nXNb7y7528U2M4i8HDjEi5crbmqowDkwW8THLQpyABhyIIF77y63UdoEy4S5/cXbt5YYPfSkkbuN6OLiZA7I0qAgB2TTgRE2xFsdJ6yvuwhReTlQDOcAJ07w0wO7+FgmBjlgDeRAzJYjwNl21tKqd0vdSV+3guJhw9YyEg9hK18fJkTj0TieBHMntiCA7YIrj2y+kbzp30c7G+uD1CAZOFl3Uecevf/eB+XAgNyM+mqDzKJrGnLAGsiBmJVfenjbkPP7QJXwYPfc11b1CMLZPbWOSLTvNvy5qmD5klt2vE9wGSYHtmZaMJefX2qHg39Do4D0LsLtzRmQA9ZADsS0/DsXcCMzY/443ZS6h9ZooJYCjeScTjTx6xRLbRA33acvmcmBvFXNgWA8M+P+SqqeudwhiX/bMCySkAPWQA7EqZX+vuFooafdjJ3n6ZTYqhYkzZ3Pp+TubsLpt1mPJvktqyRBDrjmN8sUndfgT02d92/VX5GeMgggB6yBHHgQx3XMuH4VDQGlffHuwMzfpnCGZvIyJHMcrxnNvSTkgDWQA09QI1a56HKQA9ZADjw1LenMZ1Q9uQDkgDWQA08N58AkuOPBZSEHrIEcgFzIAWsgByAXcsAayAHIhRywBnIAciEHrIEcgFzIAWsgByAXcsAayIFruoltYL7LWsu3c7ysageVQA5YAzlwTW50d9+MaJpOgukVticUhRywBnLgOmZqIfBA1SCejVUF0nZYmizCMXczaZvNQoFkLYMrQA5YAzlwFduJui3RWNUg3uj7oC/VDYuSHFOmOFpPVInXPrwK5IA1kAPXoW9i6kj9gqaOgc4hXW+cpeuLK73MT74w5IA1kAPX0VVbhR1qySNdl9TJrAwYyQH11mjGb3p2HcgBayAHrkTdrYhzYDY1Z/Ztdjl0PwdmyRzIv/3YxSAHrIEcuJKZc6v7A6OBnhVoZo/4/RzgRqjfasgBuCTkwDXcmglByQExbMuMQWJYsFQVUQe0lzfrVA5cp+RADHLAGsiBa5AbHsU4cj3gXjV8RZYMyP1TAkNuhGaKUME8IVwScuAaMnJAVUEPyEzBQeWC7g/st9wI49I3SL445IA1kAPXs+DW3Dej/6W6iblq9463C25QEpsfUB/3xhN1P8IdrhfA5SAHruaeaMJJcC81xYZ9f7y/UncdDqXmCXm4EP+M60EOWAM5cC0jbs8O7YnG3c5sTK7pAkwS9zVO5YC64FgN5IA1kANXMpd7kTs0b7rUX86nwcWC5M2UU+sHvCpmCDXkgDWQA9fRI7lj2pgbeasvdzjutlvqEmKXKH62Vzmw7YbrCb0qVg5oyAFrIAeuobsikuVDA2nk7YEMBUY0lo/cJK8DSA6M+reSAylmxHA1yAFrIAeuYMldgIFcGpSeAJ/tpT23iWTRQCO5b8Chew6NbXq/IUMOwIUgB65gOKaxTAt6cm9030TdJ9VJXgyQ+yfL3ZNb/m3Vg3FBtxVeXbwO5IA1kAPXsL6Xc//WpUk4KbihRkfuWBq7DfFwQ9QfyYxBS48b5HKjLkxSAeSANZAD13MginQImjSZdZbkRqYJu2ppse79j/zLBBt9j/MqIAesgRy4gqHeIzCgsX7QkrmCoaTCfbh9aN1ccQis1FQi2/jDgV1mmYKrQA5YAzlwBZ6c5qNUscI9jdeqOomxV6uO/fUDY2q01ZVF846uCo/rQg5YAzlwBR5JoVGiqSo42jcj/zbRJlhWyNaDzTpo9jOiJQdD1PWHB8gBayAHrmVp2vw26ANIO9clyjQ1U2By4JZovaGBCg6lX8HwADlgDeTAlcwmcn2A7WR+UJElAmqEEGVy4MCdhtgMoT9euCbkgDWQA1fime5AK7xoMHTJjV01FLq9c2r0kANwNciB65A2v5OFQ2NVwFyR6wOT5Oyfbu8jSQ3kAFwLcuA6ht6UW33/vkGuv5SoR+T1aZy4i5lq79wd2CdWDiAH4IKQA1czPEgU0MpcIfDktma3bjIIVHvniGgjB+B6kANXtNZXAncyKcBNXa4VzDkIYgUIpL1zRMjyIuQAXAty4HpGE6Legf83Uomg5wmaYc1CZUVNjgE1p7ihjVl/yKR0wbUhB6yBHLiS1mhANJWewM1i1uLHK3P1kIOAHH358PbQahDNu2YTYqyQ+fV3HSMHLIIcuIZbXaW8p5t+WwoXN4L9RUuXaKAmCbb8iPr8UJcs3NBYVSxWBlhHBJeDHLgKPs33e/4lwmaf+tFKBO2BY+YKVzxa0Hc8EvtojZJpdLLgSpAD1kAOXMf9XXD+54bvxGuTbv2PdWPvbzh6BaIy8sKAuBbkgDWQA5ALOWAN5ADkQg5YAzkAuZAD1kAOQC7kgDWQA5ALOWAN5ADkQg5YAzkAuZAD1kAOQC7kgDWQA5ALOWAN5ADkQg5YAzkAuZAD1rAzB6Ag84zBc4ccgCPMMwbPHV7pmsALARXC4VcTeCGgQjj8agIvBFQIh19N4IWACuHwqwm8EFAhHH41gRcCKoTDrybwQkCFcPjVBF4IqBAOv5rACwEVwuFXE3ghoEI4/GoCLwRUCIdfTeCFgArh8KsJvBBQIRx+NYEXAiqEw68m8EJAhXD41QReCKgQDr+awAsBFcLhVxN4IaBCOPxqAi8EVAiHX03ghYAK4fCrCbwQUCEcfjWBFwIqhMOvJvBCQIVw+NUEXgioEA6/msALARXC4VcTeCGgQjj8agIvBFQIh19N4IWACuHwqwm8EFAhHH41gRcCKoTDrybwQkCFcPjVBF4IqBAOv5rACwEVwuFXE3ghoEI4/GoCLwRUCIdfTeCFgArh8KsJvBBQIRx+NYEXAiqEw68m8EJAhXD41QReCKgQDr+awAsBFcLhVxN4IaBCOPxqAi8EVAiHX03ghYAK4fCrCbwQUCEcfjWBFwIqhMOvJugH8wDg+pADNfEeOQDVQQ7UBHIAKoQcqAnkAFQIOVATyAGoEHKgJpADUCHkQE0gB6BCyIGaQA5AhZADNYEcgAohB2oCOQAVQg7UBHIAKoQcqAnkAFQIOVATyAGoEHKgJpADUCHkQE0gB6BCyIGaQA5AhZADNYEcgAohB2oCOQAVQg7UBHIAKoQcqAnkAFQIOVATyAGoEHKgJpADUCHkQE0gB6BCyIGaQA5AhZADNYEcgAohB2oCOQAVQg7UBHIAKoQcqAnkAFQIOVATyAGoEHKgJpADUCHkQE0gB6BCyIGaQA5AhZADNYEcgAohB2oCOQAVQg7UBHIAKoQcqNy7zxT4zrwP4KqQA9X7akKA/WzeBXBVyIHqhR0CdAegGsiBGgg6BOgOQDWQAzXgdwjQHYCKIAfqwHQI0B2AiiAH6kB3CNAdgKogB2pBdQjQHYCqIAdqQToE6A5AZZAD9cAdAnQHoDLIgXp49xndAagOcqAe/v3/+f++MA8Brg45UAff/05En34x/wK4NuRA9T7+TTS4c4i+e2neA3BdyIGqvfuRqD/qdDrLAdG3f5n3AlwTcqBaL15/pj8ba46BTmc2+hfR1y/mIwDXgxyo1A+fiPZDlQJi3SD68AoThnBtyIEKvfyOaHVrMkAb7oneYiUBXBlyoDJ/fEs0uDHtP9RaEf36m/kcgKtADlTk3Vei/mFmGn/MzYToJ0wYwhUhByrx4r//IWpsTcNPmh3+Rf/7DyYM4WqQA1X45S3RvmtafZbtPdGnV+azAS4NOXB9v/1KNG6ZFp+nuyD6HROGcB3IgWv761uiSdO09mPmY6I3H81XAVwScuC6vnz9X3K9zOnBtLsJ0ft35isBLgc5cFWvPhDd500Pps08lz6/xroiuDTkwBX9/JZo0TZtvJjthujTv83XA1wIcuBqPr4hms5N+y6uLRsRvzffA+AikANX8u4nosmdadvnWU6J/v7DfB+AC0AOXMWX1/9Lbk9vK3yA0YToR0wYwsUgB67h35+IdsWnB9PWvT/pP//FhCFcCHLg8qTqmHPe9GDacIfKZXAxyIFLU1XHlqY1P8btCpXL4EKQA5cVVB0rAyqXwYUgBy7pxev/BFXHyoDKZXAZyIELSlQdK4OqXIYJQygZcuBiVNWxU9sKz4fKZVA+5MCF5FQdK0NrjMplUC7kwEV8ya86VgZULoNyIQcu4HjVsTKgchmUCjlQPrWt8FjVsTJI5bIPqFwG5UAOlK1Q1bEyoHIZlAY5UK7CVcfKgMplUBLkQJm+/HNG1bEyoHIZlAI5UKIzq46VYa0ql2HCEB4HOVCan8vYVng+VC6Dx0MOlOSBVcfKgMpl8FjIgVI8oupYGVC5DB4HOVCCR1YdK8Ooj8pl8HDIgcd7dNWxMqjKZbjVATwMcuCxvv+OyLk1rbFKqFwGD4YceJzSqo6VAZXL4IGQA49RatWxMqByGTwIcuDhyq46VgbZiIjKZXAu5MCD/VJ+1bEyoHIZnA858EAXqjoWMWs0H7Z5GZXL4FzIgQdR2wovU3Us0CUaPPBqJCqXwXmQAw+QVXWs6WWI7jZoH1pHjNJdiyXRw4uZoHIZnAM5cLbsqmMOZYjuN2ia9+XwzKeFGjQ1jx5i5qFyGRSGHDhXTtWxDTmmExAgip7k507CgPv95iFL1y4ZU8M8ehhULoPCkAPnya06tkmf0YmOLTNs92mcvuYYGV4Q7c2j0HlrFVC5DApCDpzjr/xthZk5cOSqIsfAIOPDmcOL0MB8WlGoXAaFIAeKO1p17MwcyImBTiMYXbi0MI9Czs58WnFSuewnbESE45ADhR2vOrYxZ+yY3BzgGIhNIqYtyS1nC+Pa+xOVy+AE5EBBp6qObaKTflp+Dsw5BmQS8ch1QYf25tGjbWUjIiqXwRHIgUJOVx07Z1zQI+r3OQfmtMhLlvbxScYzoXIZHIccKODde6LJian64jmwXXHPYjvgHJBJwV12VuxpzJ9Z3h4mVbkME4aQAzlw0ovXnwtUHcvMgayz/XyiFg1JDqwbLidB1o0QuTuwzFh6lHGhsTBULoN8yIFTClYd259aR6S1F9y1kHdLDugaQhkhM5vSgt8kc+AxMYDKZXAEcuC4wlXHTq4rFnKvAVqo1qxzQA/dU5sVeuRKV2IbGTPkXWg8h2xEROUyyIAcOOaP4lXHZCHg3GwaUm74HfFxQeuehwH+PIOfA3qtT3x10i0PFsxD39x9fAwwVC6DTMiBfLrqWEl3K2zdT7i5u57ftQ9zoNO5GfCHBsG/hwOaJH4qjxDG5SwnUJXLcKsDiEMO5JFthUWqjq1Ptc+1fA9u2yyyDMmlyM6imUzi+Z2HLn+qYx4b3mPnBiJQuQzSkAM5Clcda0kDP0qd6DkIYosFiGL7FNY9f8mwLDVM5MCI31FWDDBULoMk5ECmM6qOFcyBzjD+7Twv+9svOQYWqRyYljQ6MbqoXAYxyIEMZ1UdWycWCbSSmwKH4al87WUUJZp74cqD7YJzo9mUHOi2gkGE+rfSbZU1XYHKZRCBHEjJqjp2hlQORAx1ByHFfFjvO2jqdp+5cenYFsYzSeUy3OoANORAwotX/zm2rTDXumlO+8dyoEPUUEuMovbhF8x6EgNBDkzNhqUp9fWDMnMAlcsghByIy6k6dlqT3I16cCIH0u24KVsJfLcyaxCOA7Tkv8uCymVgIAeicquOnbYgV68ebFHfnOhZsupgdg4kW/m1ckAvc75U5bKXL/NHHX+8xNxErSAHQkeqjp20duleP4pdP0i237rlgF7NeJnKZeYpyPHWfBbUAnLAd7Tq2ElNooN+FO0P9JLLg+uXA5erXMaN/dObKH6HefQZOVAzyAHj1SeizcOX7soeAT0IeMD8QLU5cK3KZe+JXpuHUDfIAeX7E1XHTlkSrUwQPL0c6FylchlioM6QA+x01bFTxjSWC30SBE8xB/T2598vWbmMY+BH8xDqBzlQqOrYCU21S4iDYLV8ojmgNyJernIZP8dvzEOoIetzoFjVsePaLqldQoc+9ysaiRyYtSIXImWmPK0WOXDJymUvOAbovfkH1JDtOaCqjqXP0WfpDvx7Dcg4W4z18j/HkXXCtFIfU9RHUyLriJTYyiKW3Hd0KZeqXPbXr0SfJQd+xULmmrI7B2RbYaGqY0fMPFcVFdW6h5Vp3CFzQVFklSxspgYSkffMXLWa+Pz7GD2Mqlz2g3l2yvLzB6LXrzkH/s1/yXuUSq0jm3PgjKpjR8y4DxBp6XxWbbVGZv2AFl6N3EYSI3AX7jMyRpH33EuSjB/ZYzlD+ZXL/uFo+e0byYF3X/lv+fwVSVA/9uZAeVXHvMJn663jpC9LtCL7jrXoe9rO7vCIC5oPIFXSyqtcJveB+vvLNyoH9I5u+oC7rNWOrTkgVceoQNUxG5VYuey3N9wBUDuZdA7o99CHV6iGVC+W5kDhqmN2Kqly2Us5+3+ndxT5OaBLweN+izVjZQ68/LVw1TFbqcplj7rVwcevnLXh9whz4Jtvfoh9BGrAwhw4q+qYvR5ZuexHburRPsWP9Ld5xF789wOPPMw/oAYszAE5G2FMcJKMDT5LY366yr4A+ozZOC548fo/9OcjlxA+d7PRvx65uPDF69iaoa9vfjKPjMvPFL5HDhRm5zyhvmZoDnlIU5sNSrh2+PFlxjd5+fI6KwiQA8XZmQN8gJayhuiZunWIvitl86FcJMxwnQaKHCjO1hx4fMmBZ0vuxV7WZb2f6K0pQRRBdMkNziHkQHH25oDZY/TwEkQPcF//yxSy1+hzaXuN3mfVHiG6TpFS5EBxNueAKUlY6oShN9nd5a5VbhNNju9qmhVa59z2nClNnfwf9HCjSalbgXJy4Dq7DpEDxVmdA9988+4RJYozjbmLkds8D0TJwqUJu1XQPxmOzH3PjOC3HAZ3OpqWvRZqPi25eDFy4ImwPAf0evfH1SSLGhLtzcMMTqrSQEIr0mHgzkPM1Ly/Q9TvNduddnNC7kPuuJJL1SYr92YGyIEnwvocMLcwKmnCcKQKlOXYunRqfuCmT6458XOkrEw1EzYIS5EE26NmTpn3Qd5yN6P0mxshB54I5AB79eFBtzTMcPSMP6LJyWbb5Z75vfqsWayWoRfmQBg0Q/dI6pxHqql8Lv9mh8iBJwI5IL58/V/61wPvYXK4N+VGBJ/DzSOjEZkQmMTrlXTDCcp12L9fL/h7qExK5IC+e2LcmEqa21D3MrlA60QOPBHIAU1tPkrejbCQYNYuW1hZcBmpWyjvjn6huSeamG2orwKgQA7sKVnC5EEeuaXoCOTAE4Ec8Mlm5Ifc43TpBRP7N0SeeWg0wzudzuSWRwHOgZ55KGLN2dQfKpADg5MTDgV0uQfy9kL3On2fvY4IOVA3yIGQKk7ymBn4xrHZAY/60t0fSKXSboubejjkH1DWXofTObAmevQFg205JUdySL3yDKVVPTsKOVAcciDikcXK2kT5q4Tarh7L94OKxdEcyBqRnM6B0bGLlIWUWIIs03v6+2UKUal1UHMhB4pDDsSojYiHB16M25vy4s2BE5sQFOupuY1B2LofnQND133k5YKbSZklSTN8G6lC5PtCdJ1SRMiB4pADCaqY+YNG3Tf+3Uxa6WWD67G/sCA/B0yb3vpd/VM5MHzs7ECr9BLlKW8y7mb27s0b7DOqG+RAitzcZHX+zU22ff+yIOdA4sslBnQ08JA+LwfkfiXCb/AncoBjIKsXUZi6ZcmzrhGIHCgOOZBBNiKeV7msu+Vm7DfrYawFK1tvoAcb/DF//iEvB/xriMdzYPu4GFg3LnMLszpBDhSHHMhy9s1PN+Saq/6M27p5lBb5WPa4YBNcQzyeA85jYuDxVceeAuRAcciBbHIz9DMqlzX4PB5UNzqWA+38HNByc8D/ZM2jnnn0AJe9xXltIAeKQw7k+SgbEYtWLuOxdjg1eCwHWqdyYOfnAH+XmHgO9JP3Ri1Oqo79fp2ZumohB4pDDuSTW/MVqlw2WxCNZ52tWUR4Q2Qetfz5wozFx63sHHD8LQO5+45FK335oCC5NbslNxNCDhSHHDhGNiKerlw2lBXD3C6busFG+Wftc3KgyLi/+cCNBbrqmCW3GUUOFIccOKpI5bK7PrkrnQN6H9GKuxHaxM+Brt8xuDdLAIet9eNyoPA9lqOk6thP1tx2HDlQHHLgBLURMX93b3c04C57Nzadf2x+YBDO7z0mB7qnKhtlKb3qWM0hB4pDDpz0m2xEzKtcNnd5SDDjNl0sB24j84ln5EB6oXMw81CYVB271LbCekIOFIccKOBY5bJ5X9pt0RyQvcb+yD47B6ZqsbBp+CP9U9snqhwXsL2/QNWxmkMOFIccKELdnzencplqskVzYEpj1w+C7BxQ+5LXY/Vdt32Sj8zG4Rqlh1FVxy64rbCekAPFIQeK+fKVjlUuK5gDS6K2FCtR/8jPgZmjdxA1zKe2XZo+eDc0k6pj316n9kedIAeKQw4U9YdMGOZt8CuYA2OZ5h+Z1p2fA9yHlx/UJv+qAOfHQj96gMtVHas55EBxyIHiZCNiTuWyYjlwp3cm90itFcrNAQ4K+fhsSmZzUvoOKMPNfcEOgqo69qy3FeZCDhSHHDjHD3mVywrlwGxiGvNeDfs9Gpiixv1IDvSJY0L1FzbkhtODO/UlAR4xFNpfcNmqYzWHHCgOOXAW2YiYVbmsSA7MFjTRX7nl8fqcvyYUtPGt/Et9ryZFqxZy5yB68yL+2gKboHTVMWvWDSUhB4pDDpwpu3IZ58C65V9PiObAMBxHcAfdb7s3tJc1B2F/IKhjdscxoFYczt148cG2S6vwp67vmrlzloEb2VZ4nZKgtYQcKA45cLaPUrkssRGRc6AlZ/IM5jNki0HYZ5BpwOj8gLmUqPr/jrTwdp8G8W7H6Zukxl2h6ljNIQeKQw48wPe/JyuX6RyI3I/QGPs50OVWmZjy94K1wZNwsD9bqeY/71M/OQ/B36HoNmjuh0jVMcvbAXKgOOTAgyQrl4Xn9mwHl2Mg0ZO/D3YjOpH6xmvJlx5RuhTx0HVObn00pOrY52dedew05EBxyIGH+fJPrHLZ5ngOtCfpGOgcnLyvmd1N3IwNDUVKISijvgVVx05DDhSHHHiodz9FKpdt4mVCUraLcfoiwxHb4iOAFKk6ZtO2wlzIgeKQAw/3W1i5rHty/9/p6f1yWFN17DTkQHHIgceQjYiFKpddi6o6Ztm2wlzIgeKQA4/yQiqXbYpO312aqjr2j23bCnMhB4pDDjySbEQ8VbnsSmRboT1Vx05DDhSHHHi0E5XLrkVVHbNxW2Eu5EBxyIESvDxWuew67Ks6dhpyoDjkQCl++US0yNqIeB266pjt64aSkAPFIQfKcaxy2aVJ1TGyrurYaciB4pADZZGNiEcql11O086qY6chB4pDDpTnj7+PVC67FFV1zOpthbmQA8UhB8r0fX7lssuQqmOf7Kw6dhpyoDjkQLmSGxEvyuqqY6chB4pDDpTsS07lsvKpqmPYVpgPOVAccqB0795nVS4rne1Vx05DDhSHHLiAj2/SlctKditVx7Ct8CjkQHHIgYv4OVW5rFSq6ti/zc+CHMiB4pADFyIbEXeXmTBE1bFikAPFIQcuJVG5rDxSdew9pgdPQw4Uhxy4HNmIGFQuKwuqjhWGHCgOOXBJv/0aVC4rh2wr/B3bCotBDhSHHLisX8qsXCZVxz6g6lhRyIHikAMXpjYillK5DFXHzoQcKA45cHHvVOWyR68rUlXHsK3wDMiB4pADV/DH4yuXSdWxX1F17CzIgeKQA1fxUjYiPrxyWXuBqmPnQw4Uhxy4kh8eXrlMVR3DtsKzIQeKQw5cywvZiPiAymWoOvZQyIHikAPXoyqXnbsRUVUdw7bCh0AOFIccuCbZiHhW5TKpOvYdqo49DHKgOOTAdX3/+xmVy7qyrRBVxx4KOVAccuDaXhWtXKaqjmFb4cMhB4pDDlydbEQ8XbkMVcceDTlQHHKgAu9+ko2IRycMVdUxbCt8FORAcciBSvx2vHKZVB37HVXHHgk5UBxyoCI/v82tXIaqY+VADhSHHKjKi5zKZWpb4WusG3o85EBxyIHqfJGNiMnKZVJ17CdMD5YBOVAccqBKUrlsEq1chqpjJUIOFIccqJZsRAwql0nVMWwrLA1yoDjkQNV++WQql6HqWMmQA8UhByr34rVULut6f9JnbCssE3KgOORADchGRPYtqo6VCjlQHHKgFv74m/5/qDpWMuRAcciBmvgDr0TZkAPF4eirC7wSZUMOFIejry7wSpQNOVAcjr66wCtRNuRAcTj66gKvRNmQA8Xh6KsLvBJlQw4Uh6OvLvBKlA05UByOvrrAK1E25EBxOPrqAq9E2ZADxeHoqwu8EmVDDhSHo68u8EqUDTlQHI6+usArUTbkQHE4+uoCr0TZkAPF4eirC7wSZUMOFIejry7wSpQNOVAcjr66wCtRNuRAcTj66gKvRNmQA8Xh6KsLvBJlQw4Uh6OvLvBKlA05UByOviq9eh0i8/Y1qpWWBDlQHHKgSm9VneKEP8wH4ZGQA8UhB6r0O/3z0kfq/78QoT9QEuRAcciBKr2h8FDVr8RfhFekLMiB4nDUVQk5cEnIgeJw1FUJOXBJyIHicNRV6Y2ZGowxH4PHQg4Uh6OuSm/o9zc+Uv//FTlQGuRAcTjqqoRxwSUhB4rDUVcl5MAlIQeKw1FXJeTAJSEHisNRV6Xv6FuzmNhfV/wV64hKgxwoDjlQJawrviTkQHHIgSrJPiO1nJipdcU/8DvQHygJcqA45EBd4JUoG3KgOBx9lXj3xTwIxV+Jdy/MA3gw5EBxyIFK/GDmAvJhdPBoyIHikAOVQA5cAXKgOORAJd69Mw+MH+hN/JX4A+OCR0MOFIccqIVUDsDjIQeKw9FXpb/+beYLkQMXgBwoDkdflV4T/ageIAcuADlQHI6+Kv1OHz6qBz/Q26Be8df/qnfBYyEHikMOVOgPolf6Uez6wXv9Pngk5EBxyIEK8bDgF/0o2h94jf5AOZADxSEHqvPiE9Hn79VDzA9cAHKgOBx91XlF9KsJAuTABSAHisPRVxnuDvz44m8dBMiBC0AOFIejrzL/0Od333AQ0N8vkQOXgBwoDkdfVX7RFwte/POZhwfvEznw5eVv5hE8GHKgOORARX77TG/1HoK/vtWXCz+pwuWMgwEXD0uAHCgOOVCJL1+JPuslROzj6+9UEkS9NB+DB0MOFIccqMSXN0Q/m8fKu5f0X7N8QMEagsdDDhSHHKhIavUwXomyIQeKw9FXF3glyoYcKA5HX13glSgbcqA4HH11gVeibMiB4nD01QVeibIhB4rD0VcXeCXKhhwoDkdfXeCVKBtyoDgcfXWBV6JsyIHicPTVBV6JsiEHisPRVxd4JcqGHCgOR19d4JUoG3KgOBx91fte7SjQ9QlNvUIoAXKgOORA9T6aLYYitvkIHgU5UBxyoAZMAQL2nXkPlAA5UBxyoAbCDgG6AyVCDhSHHKgDv0OA7kCZkAPFIQfqwO8QoDtQJuRAcciBWtAdAnQHSoUcKA45UAu6Q4DuQKmQA8UhB+pBOgToDpQLOVAccqAepEOA7kC5kAPFIQdq4lt0B8qGHCjOxhxQY3EowjxjTxNyoDjkABxhnrGnCTlQnJ050IEikAPWQA5ALuSANZADkAs5YA3kAORCDlgDOQC5kAPWQA5ALuSANZADkAs5YA3kAORCDlgDOQC5kAPWQA5ALuSANZADkAs5YA3kAORCDlgDOQC5kAPWQA5ALuSANZADkAs5YA3kAORCDlgDOQC5kAPWQA5ALuSANZADkAs5YA3kAORCDlgDOQC5kAPWQA5ALuSANZADkAs5YA3kAORCDlgDOQC5kAPWQA5ALuSANZADkAs5YA3kAORCDlgDOQC5kAPWQA5ALuSANZADkAs5YA3kAORCDlgDOQC5kAPWQA5ALuSANZADkAs5YA3kwHPSHZoHym3sX8bh3pubhychB6yBHAi0zduyHZzFrXl4TO8uq9ke49Hqzjw0NkSR9yxonG7yDaIb8/Ak5IA1kAO+e2qaR3Hbm/vV1jx+kDuinBbeWpsHbO2e0UA1/sZL85B/Tfnfhiby1vPkH50JTSM/wPBorB84916U46T/SOSANZADxnZAfhCsW8bS2zjcPIka+gOs6d2YDyY0PS+nQ9GkgXmUcOsOuuZhp7MkujcPoxz58TEb8xH5xu7MPOzsSPocHi34/y2iBX9gnRksHu30A/WHRSEHLIYc8A2DIOB2lOAGTXxn3pMluz/BzdWcgZP4fN5vmcd8Kp+aRzHHc2BlHkl3f8pN35PE2k5oLPlyS266O8CfYr7BgHomwsRN1pOCHLAGciAQBEGbyHGcBXeWR9xCwlO2aNBYdaPTcrv1TXLMo6TbCbkmPGYTGulHce2WGlM0aKXnGLby+6xbqh8Q/cb89T1p5DwicGig2r+X+XMjORDNrSFNzKMI5IA1kAOhbl8PuId5n8CCZpRC5J/bt5wiEVPqm0dGOH7YrvyJvRHHiD4z+4IuP+u6QWCIW6I9v4kFzFx+vuSAR66OrlV0zjAQ/AGrRA5kDF6QA9ZADkS0+zTh5vfYHOCvPyoYC/BpfEFyCu90xuZjoejc4p76Eh5+NPAPkL5HvKOx681UDjT7evJwmzXij/wBDnIAAsiBqPZAmttjc2DtNc05ncmEAvczNuafPBL3oi18PVa9+CW5prOgcT8hMrZv6X7KzcR8Jf+CcspPDzjUuMB84Sj50bYa5mxo0Wrdea1UDmBcYDPkQNpjcyBidk+0IueQO4nYWe+5ca8nkUsSIvYrzAbqo9u+fx2QPyqJEObARnchImTC4F4HD7uRX61pPqR4nAOYJwQfciCtQA4MY6N39Y+sHODxv9uU5trIDwJxT268Dx/7Fe5ppX7C3FWXBYvlwMg80GTsMXdkyYBDY+/ecZrpKxG4bmgx5EAaNzPTPVcG0Qv7Jgc803Y0dZbOyIGbCfXnurlyS+2Z96bNKXmxIJoDLeqb8QB/nuo2pHKgq340n9PJVd+o3eLugFzw8Lw9DTbS7H2R+YG9/oSBLCjivxM5YDHkQBo3s7hIA8/Kgb76SCoHtgseE/A4XjdX/gr5R5Z2n8bR/gWL5MBwEK4a5K69XANI5YDScmUigvYqlfZ+D0MvLQpFckCHwzK6JCEOOWAN5IBirtLpN9GTsTSc6AyaaUbNsO20zEx7IgdmB26Uqgtg1hMu++R64Tm3bQbmt7KSMVynZAS/wuxmQA29wPHg9Rz+HvxTMnNg2CenR2Mimes8BD2MTWKZYioHzCRkFuSANZADij6x6+aVyAEn1pAK5sDW4xQY66U/IxMkXRmRb/wtR/7wfNxp7Xn47tLKH4XIusLgV5C+fhwPErJyYD2gwdqj3pyj4o7/4fcwHDroB0ZWDiQ6IwHkgDWQA4ppY/oDPCAPr9Wv4+f5Qjmw3LjcXv0hP48IzKP5lH+E6/TkEx3V7geqKbdnnYH++ULeE/YHpKvPaSFTfNJ5aMuJPiMHZGliV/127QnR/ez2dqYTZ5JY5qj/AO4y+OsJ/d8/A3LAGsiBEJ8ZzdsBtybTjG/iF9ZP50B3p3bw3AdDgGErDJKRtPeB6nUonloYyAZ+iuh9QENy9T873uYgS4ub3kjPLmy49aZzgLPGncuVhQV/dCy/HP8xMlHAMRYfc8gfcLviAQt3PFQHZBwsXZgEf5OBHLAGciDkt2h5uyNamAm3WL+6QH9gyTmwGW53ajY+jhv9fBc9QZtvF8sBeU9qed8oekkhmQPDlY6Bzka9Z92QzkxfDftbQaAYnDz3ajmi7mjEIAcs9Mq8+OKreZ8dTuXASM6qhz5NuGfdTlzZL5ADndGGWym31TTVJreR4XjhHIjuMU7lwHqlY+B21ApP/nt1jXEU2ZOoqCsdck2B6E5NP45oot6y5PWMJ5sDX16Kv/9Rb16Yd0KmF5/UoSk+vzPvs8OpHLjXy/cWxF0B3ZpCRXJA4Q55w/QCfPtk487Pgdt0DkQ2L6fGBbONKjy0okFYgEh/RfL3b/LAZK/CQn8PWZSQsy36CedA5Nim78z7IEfYIbCrO3AyB/ydeCOXHL+1+ArnQNDOQtF6AUYkBzY6LBz1Hv+bBqJzgukc0Nr+4gGFP6kt04zRi4KSAqYOSdd/FpLfJeLpjgsind2fzbsgRxCalnUHTuaA60+t3U70Bt8I03DvZLeONjojB1ItLpIDgXgOtHU8cF9CP5BmnRoX6B59Q1cl6wz16GBM9/x9wuHEsMd/jqsmEVkw/9lMLDSKeLo5EHYI0B04yQ9Ny7oDp3Lglvp+29kRmV28PtNwY+sJ9bdL50B6XHAsB2QzINskciC2O4jJR5M50DIfC6itzCNyt3u/ChmT33mx9X9ig8ZDlRp+18ZcZ4x6wvOEQYcA3YGTTGja1h04lQN7v23KpgAeGKhG5TPNqOk4jm7cO36kOuPpHEg7lgOx+YEwB+ZOT36M3x/YyNUL1eWP54DrOBNT72RqtgxJiSI3OixwJvPwJzrUiG9FypgmeMI54HcI0B0oQIembd2BEznAo2w92bbek7uUs2hk0B023JTH9gdycsCIjSlu9c+KjzO2fmWzvT+WkXYeXfywlm6O/xP7tLyJFkqapn+5p5wDfocA3YECVGha1x04ngPbsWk7twPZLKiqiU7Dkf45OXDe/EAsB1I1jmNfO/RULZP492uoWkpq35D5VtwhSO5jDH4iR8m6Ff36ZmQE4XvKOaA7BOgOFCKhaV134GgOyNSgdKWXPCBQtcA6nRuXJmbi8JI5EJsfOJ4DRux93I1RVzlmg3Bqcxy7rYlmfuKeVvz3xnIg/Yc95RzQHQJ0Bwrh0LSvO3A0B7qNyb4zu5Pp+2Cb8LzvR8JjcyDRuP1vx8P5yN0E5Lx8fg6siNQiAi9c+CQTg25y9k//xK70FJ53DkiHAN2Bgl5Z2B04NU8468ykM6DXECjtSXBprXAODHWjjtOVCiLUt2vyjx2YYbrg9zeTdzMI2/xtcCEwmgOznuxhmjTmbrAOmrv+Dg9yEmmk/4CGXE983jkgHYJadgf0oQAFmGfsQvJy4KAnBNh6vPBPqsowmCn0jty/IJUDZiuxwWfs1A+WVtn0JyYjUqd/fke3dePdryIzf4lPGt5JFATFi9pSznA4oEF8tbDKgbYrywyfeQ68+FTP7oC8SFCIecYuJDsHbqWd0uBONfngnJsUXzgQFx8XFMKtkmNAX3iM8pv4VqYMml5PLgYaYXNNhYWUH2E7iRWpwc6JMOQxTWxoIDnAH5PBQ4k5oH4uFJF7GoKESnKg6dLkfqPW3d4km+W6NfeLjR/rD8RXHBXiEf/EXTp1Gmayj/v2obGz97xl2M+/S+RAd89dENnZzF9755oiR3zqd6M7JjkHOAbUdYQWjdXUpNJDDlwHcqCoKnKgwU1Imv9c3cBwbBYJ9aQ/r07F/vLcTe4q3KAiccbCvJht2FGfSR8k4/am3J0324PUD3c23jJ6b2TGLXc5iP4usxb/CarFL8fL9YYfm8HG3OVvoH+lWas1H1Nju9MbHRLLEB+XA+ZL4DjkQHEV5MBsQRPT0LaHyFr/gH9x3TShtGGQA5kzhFFhg5N647HlimxEA/kFzDdr9paxmQqfGsQEJZBnG5UX5gqHKo04CNJIChTpGQhd3Ii/81x94g31ddwJJzXIQA5cAHKguApygIMg0qsfNhtqZk/R5b/964ZNL7UyJ+mMHOBzdao3IKt/KH/vj6HqFurbGgj5p+P/BUvuAUTXQA7H/iYJzp1+WD69GV1t6GUEHHKgdMiB4qrIgYrM04v4OnvH6Z2caphFskl4u8i/biexGkqdtf+xbaROCeeAukRpLDMCDjlQOuRAcRblQL0hB0qHHCgOOVATyIHSIQeKQw7UBHKgdMiB4pADNYEcKB1yoDjkQE0gB0qHHCgOOVATyIHSIQeKQw7UBHKgdLXLgbnjRXbW5kjsWX2oWXzL2ynIgZpADpSuUA60o6s8ypX6zq2MmlXc8J27yDLWrTvZZK5qPdOIpidX4UUgB2ri6eVAc6EKu59S0vktrW1uoJ+rSA7M3aDsTcxtczdJlNE/19xN7iIx98FMaBINwr9klyrf/yCyUjZVH+sI5EBNlJkDw/htl6MyjsOH4uO3yO7vBU0KdFHXg/sioRK1OPXzi+QA/xF+EDTlLteyrn3nmPtRBttGtk6yDq6vF10nGndIbSdTN/dOaRCFT1Cbf6yb/3xtnYKx2uPvc06eIAdqosQcaPf9nVMxs9bdbhI58zzWTbHXdpMs9xRoRI5pOSlmHOJ6n3ZU2GfeRG9DmaVIDkSCQO1+DTmOE9ymbmvelyVxb9uIG5f26jd0TK3q8HbX0R1v4+gGlz1NezTO+7uG0+Q9PnJsXVq4WYOQPMiBmigxB4aDYAulOr+JjX+OCw/Anb5bQ9recYqMULPPbimbvPPSJlKSlv+R2T/Xv3NUmHC539hXKAfCINiQ7ICXErbpzexENzqGknphccutx1838yJ9sds+LaRJO+Z3jwhfhnX0b2pKZ8BJ3CcztJVNs/H9LNkaNFnz9yperQc5UBMl5kBnPfaPrXhJpzGfidSBqWRt+fYV6X2m7vuQTReFzsCnS79ug9ziIbknXDEn0IFfdm4Sy4HMLwkVywEJAlVY0jvy/XKfkUhxy4PUnVrGKuS0+bTMz3fb3N06eMbaLfXttjLDsSRXDdZu+f9dV/6+7SQ3CDq3wUt7zNyVze8ctIVnHJEDNVFmDoRBcCe3ZjrIiSvd1VxRT53SUrjDHxz1Bzm93WXOOD02BzrtsN+yNPeFyjYb0CRyamsd1OigrByQIJAe9ANzIJgfGMi29n38TlVL6kcG+8lnjH9wRKszMzfE5IFd3nMmdX2PzB9o5utnUxrn/NopyIGaKDUHgiBIl1UMOXknlmHYKFtyettmDzTzciB+dKeZT2Nr7jDrb72iiR6T+GI/8cCj9cgE553uVpeWA52m+kaPzIG1ejoHiTP5nRpyDL2lBOyI40zonydfzN0d3U1zXM6BjT8zwA15kdfYOaWn6VCP2g5ooJ6udOXcXMiBmig3B+QQkFPCQ3PAPOrspNd7CO5FK0thAuGsF4vUdiieA1KaSjU+mSWPi0bM1lUlqmb+BAJ3HuQXKi8HtEfmQJdGnJ7ufVbDS90c17yfdYPZzhn34/2f0p6Q28tu7fzXH78iyL0Kf8qVj4Lsy6IpyIGaKDkHOl11YnpsDowlTHaRvm5eI4+0222kvOOQ+yVSHjb8ScPY3JXpCS9opbsBxj52jWGnToDblX9Im47IpXOgHemCmBxQZ3OfavDhE8xtvSmTflk9+ra+U+9GF6drRK81Hvwv4Ex01QhOWa7kDhlZmSJXBNO3yQ11V5GxCAeBm/MqxyEHaqLsHNAemwOTDR9SjhOeU9pqQl3xe7ksq8CSaPW500ubUTQI4tbS9jhc4met2K99owfEbdc/XV4sBxIiMxYmB8wHtETQqhzgpy4rB4yskdSK5kuJRm6+7jwydds6yG23pukkGFDDDVc2pPCXRbsAwymPqbLiJAE5UBNXyYGunqfWTA5EL4gtVXOO5IA6rAfZYZI3PxDi9u+sZZ6wkR8EbDtJXgGM/tr8Ud0Nnrs0Vafoi+VA9EZXbuyPNjkw0WN5MdE/PfxN+Zw/72wdR13WG3pNeT4Pfgl+LeMZG9KEn193KK2+2dk55s77Er3Dfbqwbkeq63cbGffJ1ThNEtkx4+eeepGuTTbkQE1cKgcSIr1ykwOxi9uqfmpJOdDl77ybcXPlb7Ehus8e7jLuECcGsdEc2AUhwSNj9e7ScqClM3CuL/U1ot9v5sYG4SYHgjtly09XDT4RtL5gQoC/zAQHi82o6GD0qMff9V6uoaYXgd5mzAP0eMjUDu+rGbPccJqknud5P2+IEYEcqIlL5YBZyqZMokWT/RzYhafBqT7PRHJAnd524cK6qBM5IB1U+QH6uiF3DaY5ndn79Gkv0rr4LB2czDjVpAJ0aTngjwR0Vz72/bghR5taVg6oZy8nB7hzsJD5AFlsaH5IkvphswnJuqEbDs1gKYUxHMVmUnxTyR8nYzFR615WivWX/mIF323rdiE/byrTmLmQAzVRVg6YHulID9jjh6kTq9xuciBy+Jv7rUVy4JijOXDD41J9i4eNDpcWH6WbMAmk9yuWkhDjbXDI66M4+LXn3Dc+jOQTFxJjjM/d5eXAVNKvb25NseEewMxvK414+z43BzT9i6o+R5r6hjfy5Y7+rl09v9o2P4KTKONbd9VvckOT5Fn/Vj07jS1/tySv05Lp2hVy4AkoKwf8Hqluo7HDdB3fmHO5HJg1B3xmMlOHG/MrqDWxq6Y5WelfUibb2r1+O3rdUKIq+LX1TSR9E46C/rC8HND8xf4Las4W/vL9afza3GNy4Jix5JrJAXl+FPURuZaa0YHSt77gbkRqYnY4oZ38kk5smkMmOuTPuxkcX3SAHKiJsnKAe6RsYO6UcicnY/9wit1L5SE5cFDf2xcb7QrTs13ey6kp2EQf3ryprU5Vrpq+1nesGaufPZOfaL6HXl8ctC7+gKyz6XlLfTeIpVwaLz0H1PPAb2+63ItpSHtZJk64j8wB7uPHLM18yEH9GJMDDdWA1U22+9Pddpi5g8nkUy/dIejcJiZZ4oKeTjbkQE2UlQOaZ/awyR2XG/4t2XbxZevn50Bwxsqmvt2tXO7yb/KYtJSRaniTp+Bnhz9Rj3ybwdzgaKk6EHtno49yj/vOF8qBCbU7s56rhjNO9Ldkj8yBYNrQp3sdS+niSPbJVYitXr8wlK8Z8N+vHiTdmBnC7VmbCQtADtRE2Tmg5748upc1e2poyMeO6ZRr5+fAksfz5ozWkuUscoNX888Wf0y31JZLTqvTVEPvJP7evejO56wckF/K/CKhTXSG/DI5wKMm+c26Y+rfpCbkH5kDtzxIj/DHZ/q2esbQzwH+hg7NM3OAv8BE+eiMPURFIAdq4jI5sJfTxg2PqrnP7t/f3Xd+DkTIHhYajLM2wTblIM9cd5hqMoVzoBHdo3+ZHJibNYyzHZ+lkxv+snJA/ekFxwXx3yMY+c89ydEx8bDhZh3LgWFmDoyCfAoToRzIgZq4TA4M1M2X5dbsPe4OBAex8qgc4JEtj9WXOReypVUFiw19i2TjPiMH/L9HuUwOjIKYvOOhTfypCnNgY07pZmrjeA7Mc3NAfTefmR/Q65hWR3Jg2w9zl0cIsW9ibHfm94vane46IAdq4iI5wH1dffG96RKPQtXDwGNyYOjSjTTHcd5ZKTgVhjI2IEdyQA8ceKxcVQ6EfZsbzoFBfNLNtFzTr9HUDMLRHAiKE/DfZ8JQycsBLT8HGtHZwXHGTbO5n2C+SRxy4Mm4SA7wWVn9s6P2+idmloIcUHtgxD61jijPnk+e0hx5IJ11VnpADgTkl7oLPtVcohioCTUmH71IDiyD1iJ1BVeJ5X2m5UZPto3T44Lgg9G/T8nOAfl7jowLOHwjL6HMOZiHUUTJUorcGTQfOwI5UBMXyYFG0J5u+0RufJmqyYHYuhN13J7OgaaMB1Rz3Jk1/0mt5EVFWQZ0LAfUW/+XCk//yUsU8vmmu11uDoxNm53JGCrYEO1LtNxQ4RwwjVLJyoHu7akcWE/jFws35GZclUn/poXqxyEHauISObBV5akEd3UXvcTac5MDTV2Tj41M+Y+TOXCrymepHFgPojN4odSVMvGAHFjqrbgbWqi3aq0tp5B8qNQcaJhreUOORfVtOQ424bP1+BzQD7RUDvTup3R3Igdm/JupfoNvNqVBusOflQOJQMmCHKiJS+RAg0wFEe7qLmaygncVOXmbHEg7lQOmfp4+vjgTsqYIWo+aJwxzwIi9g/8OeVNiDkhhJGmyrT2nlXlWODbDIkiPyYHm6FgO3I52uoJsk/9GfpbMSuN0DuxS44Bun1bRYFeQA0/bBXKA24tqorKiVzWjphstDv7QHJit9OFnji/+KRntMePgOz4/oN7KLyWDl+M5MGyp82KZ/YFub9rtLKfcHMPdUPyHBRdaH5EDsjSR/z4zJFD879Z0TMGBsdds8d+o8des+MyfyAGOpfhlX7ZU8R5X2xyAgswzdlLRHODWP+ET2q0MsU0rmkeLVDwwB3jo3FeHmn988fffp+YIzs4B00QG6j3Hc8AoMweUdj9eDKwZ3oDl4TnAI7KG/H1x+rt1+dFk1xz784QyYas2OMk6hXgO3FFk32WARzPJIEAOPHXmGTupaA6sm4ubTnvF33kSNPjbfjjX9LAcWK/8svjB8cWnqlTdnMz1A+pqRJRqyuuWahA+ady9K+bAfEL+zoh2ojho2PB4RGVmOxOmx3KgRw6PyA7qGTVPghK01d5IUjl9vaBPN7EckAUgWZOCaq1ovN3XNAfq6Un/0UVzQOFOPG0iJ5L2wBzzD8yB4Ti46UB4fHGPNnEtgk+FGVJNRpryerzptCN3VJGpyk1yzsH/e7bz8OeUkgNbtTefBr1k64lTn5TtSCNzSFUZSj2jibaazgG5bVMkBziqIrd6iJIg6Gdd4YxADuR67jnQXdHkTrf+9SJ+AIXdSIcy9wDIkrbcnzAfhAdk5PiSVj+IpcpcFeKIuo/cJ8zHTVkqrKdmvVNN3KPFwdtJBYKwgkIZOSB1ge9vPJkYWDTjDWjbanob/6eRLP3N0jjSyHj4bp6tc3NABDkgVzJzyw5LEMh+jkD6zksj5ECe550DM70HiHaZp5BAbOFAQvbZsc0HXXheip5nVBWMsdm7X9yGegty01/mN/G5BMjekSoavvCTS8iBpWtKot1KRa9I59/fAGSWGCYqN0R4Ry7O33Pz1V/GORDNulQOqD9K50BHcmDNaR3kgNRgyLr3oybbIVaRCNa/d1wN1g/U07POAR7BcwTcyW07B7344Tvkc9y9Y7oEjrpOlYHP7pmHnZz1J+EoNdbfXPOPm+a0lXw77jj3M8a9Y1MFZK4OY0Uqfzf1hQJj8fgcGE55IK5tD9G08Znngdtxunqgcsi/3zEnlX8W11WElFHP4zSN9YDGeoAmOeBMVbmGrZSTC9YND8fj9DqB0Cb2NNR0PWE9Pecc6A7MQbs9qKtSZl2fdH01f92PnprPkFz/Hmi50QOyFS9r0pzqj7XVHrpcS7M9WbT4JJzs8N52O7cNMuufZGPuau+pwt5RWz68OXgSC6WTTudAZx0tM7AO7gor5K/wI2oWvc/yGfynkZ9RfwZyKx2PeHYMdLdDFn/e8Qelc6D6asFfvU5fKciVrmLEYXr6l0cOPDknjm0eMQYH93yv16jE+J3IQaxaYQSP7XMOnNvoRSoe/ppHMZkzhFFBJ1ZaefT2f4qU2eZ3m1/gJuO+jEL125NVjpMK5MCVtCO3gNg5i2b8jxp5qsUfnAN3qw4qO26c+6NlRXNxzyU5zMp/OSOQA0/OqWN7Fls93G6a8xu7U2dk/6O3icK25+IGn3V8Re58li2ctZi76emvrWrhOb3wwIg/aXrqk+qTA/WHHHhy6nJsH/KGD8XNM2YyN94hpxMQwR31031l5EBxyIEnB8d2QciB4pADTw6O7YKQA8UhB54cHNsFIQeKQw48OTi2C0IOFIcceHJwbBeEHCgOOfDk4NguCDlQHHLgycGxXRByoDjkwJODY7ugWuXAcDo6vipifYguiZiNHrfI61zIgScHOVDQVXPgxtkca+jrKZG6o1vu8qehWU2tv0mbaHxyNVWJkANPTgU5MPJv0Kt46Y3Cnc50Fd0FXwuXzYFEK21llGMOSZUFdVfyuX9j9aitbA3aktpkOZyo5dI3mXc9vxzkwJNTQQ4M9FFpzmVueneQ7JBL34m7YhfNgfYkXoGpG24pTOMY0FWDZpwHsXot4tZVPQX1HM+43yCf2fNvhXQlyIEn56o5sFWnr6k6160HagcTH/H+HcAi9qaU2NC/85A2zryL/3VcMgfWk8TdILhbn5uD3UFQwFGKQyS3e3Pbl52farvGxhR62SduvH5pyIEn55o5MOyrzb2Oavl73fWdk5txxG9MNQBuD3EFimJdyGX7A3ziDu9voP5u8yhl2Y8UdJb6QckBBI8peEwlOdA0tSNmbmJYsPZkc7LnpToTJUEOPDlX7Q9s1HSVKmk60gNYfptVgmdj+rs8zI3uQmxm3o3zOi6aA6oCU+RuqLk5ILWGYz2ABgdBIkj5WVY5MHRNNyC8MaXB356/SbKCSXmQA0/OVXNgO5HjT3IguHGRk1kHyM8BOZz1AyWs7z+Sc1nTy6mBdAmXzQEVjKaEO8vJgeHe5RYsZR9UrUW2c/g9ibsObDdb/cQdzLO1SdaIQQ5cAnKgsBu5miU5MDDHYOKE7zuZA+rrnWv+8pfOgc7Sna6bNFYTITzuV2+lAlzkwgl38FMG/CxEgqBlOhXmidu2hp1ZP1kXde31OQe8QeoWECVBDjw5182BTq9r+gPm3ojBTf3jbMwBKaaYVYYt2oYXUnK04Xkrh/sE/jCCvyiswGK+KORJT8P0Hpi+ndlMPb/TnFJyj4YceHKu2JTa0qFlY+rpB3wgj5NXC5rOho/WMe09b+G0c3NgNF3I5ybGvZd0+RxgW1PNNBgX8LMUXSvkPxkDGoeTCZ2mCU1B6j4SUkdW3U/CJU8KN0aoz2pLcszcE6VZHww58ORcMQdStzhwpDrpvT5Psb0c2v79OZUWH1HRwtn7sPcwlnPZ7orThhfMgfQFk9x5Qo17AItj1UK3Ulu6bzoJHvX1s9eXcNVDgYYszxi5pyuOPgxy4Mm5ag7IGUoK++tFAZwD8Sr/0gNuyX0FWgvpMhy8IR9RcX4HQJ/Lppca4Ga4YA44i+g5XxzPgW0/KBefabYi1QdoSMC0gors4TTBbCG9sF3qjlBlQQ48OVfMAUVukUhkbgR84983a0H7kcfN3heZHzCfMOZgWPJJTb+bx7x8LptHxsUXd7kc4PH7JDGRl5EDDTVgUvgpTN5exLuP3OdtT+4t0UbdtXTYl6uIImdK9hKQA0/OtXNgR66cq9R9dfkYNSd0vbQolJon5OFC7DPUuexw9KxYsgv2B+TOcfEroBk5kBpVJflTJ7Kk4EaeuDseGyyXjr+GiKNBP7g85MCTc+UcOBDdObRz+QiVXXP+CHWQuNNXKgdG1E+Poq/qgjnQuZ1SZJEgy+oPeN5BdY2a/LnqAXeQXLrXjw6eZ5YOyz2X+aE8cfxhfh6H7aVKgpvrLcZEDjw5180BPoYbfGZrtvv8oL3p+xPWLkWmv1kqB6pcSahdMgc6a7PK2ndkfmA40MsFhvKMNXkEoN4bkLua83fib8BDjdv+hIN2o791j/Q1wytADjw518wBuec2d+Vl/cBQzoCddXep+gF81MZnylQOtPkQD3PAdHvXLf2Oq7toDvDpfrDtNJ2dGe1z19484sexO7wHMTBwZV32hiax50Mut0ir1znQ6UpKNHVH4OSdXMuDHHhyrpgDsplmzO1d3RJ1vZIzmTlEl8kuK+fAukFzOZxTrnY0x104B2QbduyaaUQw8lcxIE+hvFXtfTaObkvg53igT/6byDhrrcN0krpX4cUgB56c6+XADY9W1TGsb408k7l+M4ed6rJuaMf926FNOcBa/k0jWzuz0ordRLcFtvr6KeTe/1jvPV6P4/dvXKunZ040kM/T1K3Q20VuVFwS5MCTc70cmO11j7anb8Kr6bv1Jy8XdHbc3lfcsW1TX7/D06e5Cl0hBwKzSfY6oYOrYmDd09OKqtpQUJwoak/9yLs8uXR4uGItEuTAk3O9HOBRgMSA3LI/nNuS2/TL9pnY9fOWw6czdZJr+QevBTkwD1vuiJt2eDr33XKLb8xkkxC5kpuyapDP/rN7IrdhPr0pq7Bac5c2qjMx96TX0CJqc9ZeryOFHHhyrpkDCh/jkdU/Lbl0GK9FMldXynVfOJgevL9yRZ20i+fAeOo3/fUkOiWgbe/4aenP1ze7PncGpHVLR+Be9Rpu+F3k3Mnj5CoD/cSOac/DAlPE6AqQA0/O9XKg5amlgVMaq1PVyJM44B7wiBt5uD74IEvjFwuTA/d+N2BT1bRA4NI5sAzzsUFyua8zjw6W5Eqrs+20uDflqO7UcEwTedDmz+ou+EkbyL8asmB7RWb7sl/kgb/33l9WeA3IgSfnejmQmg1X89wjmqzdyCqiBh/Qc33dkI3JW6qe7sJ0dA9Xm/NOunQOjIOG2nXVzD53nKKjpfZAxcLdWD8DMmMoYTEcqLWZ82nk+mGDpqobwM3fXEuQfRzR2cQLQw48OdfLgaYjl8ddWqir4twtUO+VKbHYWkFH9h6YHFhzU9jo0PBdbG/MKRfOgbDNzla6E7SdROf842YHop08aepOBiouwhho6xzpzKbBZRj+7tcsAI0ceHKulwPK0iwl3rq6PKE67aUbt8mBFo9vG+So4FC4f6A+XoEL58A4mAj19C1K1MW/7P2Us9HEbCKUXVuJqmQyR6AjdkSuPyXQpKzq8BeDHHhyrpsDfPbXbX4fnJ+kTEbkGpdmcoAzgJtFpOlvkhcYr+eyOeDno9oO5F9O4TGSHh5FzZYNfsb0HMFsQcnSg2oTJy1uZhK1/jM3lInE3M5F+ZADT851c6BHE3U0tihY3HbrmsrFUToH+Eg+JHMg3TCu5KI5sB74fSJdylXjs310GYDCZ3ZOAT1xINuT0rk4vJNZw/79wswS6O/T7JMpBXcFyIEn56o5MJQlhXJ9axwU0pBb7pi7bUTo9u7JSdKKHNgE3SOHVmE/n8/jqQuICz8F1rJuIHvyb30nzyrtdYhwr4Gf4JZeg3QVyIEn56o5sL7ZSA91sSPXP8/tuO87pX50jTxT7Z1HDDw+tiEHlkHNoPtwTC+4j5/sK83MqEE2Fo79EUSK7OOSZ5qf1zV3D+RZ4x9i1iJfHHLgyblqDoi5rBmmsekBbORAHw6SQaDaO3+M32tBDvBYQHcH5txkV57n9eTiP7dzEcsF322D23ninogR6wZ/9EY6BW21u0s/g1KX5DpPH3Lgybl6DnS2KghowIekbESWdYLdvtQliZD2zh+Ty14W5MDe7w5wSw1JveGF56YKL7SXG4kIt5fTyx8uG9zp2shHl73OiIdi/lTigb/MSfS8LgI58ORcOwfWfGT3m3LiG3WGK7/6hkwWqqqahkPNHh/qMoXuxa8bPsMckM2B+m/nkZDr7D2v1Qo6AV5kAdCNrBTU9CriDEsZeNHEdLeWg9gcgmz5jN1P9UKQA0/OVXOge9PjU5naStfezO74kN2bo3LOj/XWok7X87grsFz39EkysQwx0jm4rgv2Bzx/dqDTTV1BnY3D5JNLrGI8Sn1aiDsX4Zfw+MC/N7LSus7AADnw5FwxB9RVbJqYI3EpM1n+8S/LZvn4VYe3Otplgb0+2O9ppVYUK890HdFNwYn80cDxmrGtmWmz++gn3CX2LV7nigFy4Mm5Zn+Ah79TtfdYLF29T8a3XvmVOvc02IQnsU300tkqvWzmWi6ZA88NcuDJueqxfRedDGzv4kPcnHHrMnqX/ttw4HxtyIHikANPDo7tgpADxSEHnhwc2wUhB4pDDjw5OLYLQg4Uhxx4cnBsF4QcKA458OTg2C4IOVAccuDJwbFdEHKgOOTAk4NjuyDkQHHIgScHx3ZByIHikANPDo7tgpADxSEHnhwc2wWpHICCzNFlFeSADZAD5zBHl1WeeA5AQeYZqxkrm1wtIQfsYJ6xmkEO1AVeibK9/8E8gJNw9NUFXomyIQeKw9FXvf++EaT+/1/zPng85EBxyIHqfTQjR/HRvA8eDzlQHHKgBr41IUD0rXkPlAA5UBxyoAbCDgG6AyVCDhSHHKgDv0OA7kCZkAPFIQfqwO8QoDtQJuRAcciBWtAdAnQHSoUcKA45UAu6Q4DuQKmQA8UhB+pBOgToDpQLOVAccqAepEOA7kC5kAPFIQdq4lt0B8qGHCjOxhxQY3EowjxjTxNyoDjkABxhnrGnCTlQnJ05YIrDwHHIAWsgByAXcsAayAHIhRywBnIAciEHrIEcgFzIAWsgByAXcsAayAHIhRywBnIAciEHrIEcgFzIAWsgByAXcsAayAHIhRywBnIAciEHrIEcgFzIAWsgByAXcsAayAHIhRywBnIAciEHrIEcgFzIAWsgByAXcsAayAHIhRywBnIAciEHrIEcgFzIAWsgByAXcsAayAHIhRywBnIAciEHrIEcgFzIAWsgByAXcsAayAHIhRywBnIAciEHrIEcgFzIAWsgByAXcsAayAHIhRywBnIAciEHrIEcgFzIAWsgByAXcsAayAHIhRywBnKgPLNWayZv9L+uZXlorc1DNrobmkehjesczMPzIAesgRw4aX7vzc3D44ZENO90B03z7+vYEI34zVrHz4oo9eM9orZ5eB7kgDWQAyc1ie7NwxOIxp2Ok9ESL2N9J/9v0FTeOCvVEejTXt7EePJrCXKdiDFRuu8QgxywBnLgpDlR1zw8gcjjXsGAaGnecVGzMUkQeLRT/6cV9wi2RC31wSj9GWzCHZYY/e5cyAFrIAfybP3G3zp53vT1VU+g2ye32EDikZrk8i/mUU/9jht515z66kMxnv5YpzOI9VR4GGMe5UEOWAM5kMejyUaNubmNqXecZtpZyx2EHYiD6oMH83TLnePS2BlFpvbE9ubeGXC3fXGIRc7WcfaJacdGZM7PIUd+T6+zndBCvafhN/mo3BwYmEd5kAPWQA7k2cuknyieA45pZ9EJ/I3qgJuG2HXUv1g/2iLXXt+8my0ifQmZeUzMTTiRlt51eRQgObCngf6Rg6whSZAD/u+nIQcggBzIM/Fn3PJz4LDxYga0N488b2+m6Jf8uG8a4mxKbqM167RGPFIPm3t3QDRxes1Wa3S/4pbfMO/XOZAY8EdzoDPij6n+wEJ3QLrkZly1RA7AKciBHNtg2j8/B3rSTPNEmu/ANMQGubfqQWfNieB3GtrcGVhszT86c44ImfFTOAcGNIg17SAHli1tQxv94C49LJirQcmAU4Y1Uzngmkd5kAPWQA7kuCEyDTU/B+6or0/+hkNj84hFBvp+DvTleoLW1Vf92XpArnmobBckM38K58DcjY8MghzQA46oztYNOyQNbvdyyTPk8deG/RX+jJPPA3LAGsiBHIvgYvuYyDxSzMdFM9GzHsm8XQaTA9zFMN0BtnBN939H6vJfBAeB+TzOgeEhPjIIc2Cgfh1u4OYXdbk7EMWZ0/Z4sME9hkWrdeO1+GsTsH4ANORANm6zOcwniGQOLPWSnhSTA9yxCBuePxDgpm5W+QTaPDLQj/iDrc4qNjKIzQ90OvfyK5lRRdelnhoh9Gjc9LjdG5H5AfPx/uam1Vp6XuKqRRJywBrIgWwjcueqzbRaI26Mvjsv6NmzeSIH2jkjbpMDt/Ezu8bn8NQU/94PDJUD3LwjI4N4DnBngbsrNJHvywOMqQ6MYOGQlponnHN0qAcnIAesgRzINBuHs/b58wOtRA6szZzCzeYmdqYNxwXp/T4D/9wfEXyiygFp7OHFhVgOLIl63OgHarKBhxPm0zbBBIOSygH+iwptOEAOWAM5kGlEk6AvXjwHOn29ApnP57G5PX+ecEX9ZPvj6AgvEwYmJhx0DvDXTYJciebA3OXzukeNNfcJ9sPGxN9asIjPOGTlQOwaRB7kgDWQA1m2fX82n+XnwG24cWegxgtjfUbuJ4b8fg60+/H1Q4zP6IlZQuHQRL01OcAjg6Dxhzkw6xFN150ev2PGyTOedYYj3Y0YRPoPTOXA9iaWA+otPzq6cwI5YA3kQJb7SHfgSA5wMw2oHNirhtZO7jj0c0BO4DToRdteM9rnD2zMjzQ50LkLPyvIge6Kv9dQPlcuUtzLj+RPl3kF7mPELgRIDhz6HBE8fkgK8iULcsAayIEM3OwiV/SP5cDEzB+OdQ40VCd/lFzVF+RA51ZdupuGiwtGmRfvPPNePwekg2BGBn4O3PZ1DHQOjhpYqM/TGwiSm408Wk3VbOSAxqrzMjb9GH4vcgAEciCN++qR7sDRHPDnB0yPu6kGBPtk6wpzgNvvvdr9uzHXDbnFZwzVOYjiOTAMRgZBf+BgYmATrkkw6wm9RA0CWfaoiqP0zfRgal4jB3LAGsiBlCF3uKML/I7NDyRygNvtWlb1RZqmiOYAa0kU9HUD53FBxhCdW67KiSAHwpFBOD+wVFHB30r9aGWpfiEnXLbI2nuONT0HYb4rf1pyyUI25IA1kAMZZq1Zp21W33oeD9bNIxa7HhieV/0ZOJmhMwWCIhI5wD9gxL16dW6eZxYt2ZlfMcwB/gl6ZBDmgMJ9l0hmzVz+buvossVbTgG/99/1//BmzrrHJOSANZADOWJL80PqHOxrBdf+/RzYkMfdgWhvQqRygNunq8/J7Xjfw1iZgInkAI8M1OIgPweGOpdW5OoH3o28d88tvGkuNrC7Kf/Kq535kmD5I3IAEpADOeaOc68bWNgfuHccfzmwMg/ak1/hg1tYIza5oGTkgCwOkkxZJ7YRaX5ZkUgOyMhAmrqfAzxaiVNdf46V9jj8jvxJ/aa6XiAa5LRGMqvZo7Ga3bzLiKAo5IA1kAMn5c8P3EVyQLfXIbluekFAVg7wd1VfskjsKxbBhcdoDsjIgFPIn4RsO1L8YEpTlVAL/xLFglbRxYIjmY/0c2BMXqKXk17KGIMcsAZy4KT8HGgEE/N+DnBby5iDG2SsGZyZts4tM3VW3vvFCWI5sO3LyGATzRQODDW7MAv6AEtu3clfwOTAzKXWnAYqNxQZRByFHLAGcuCk/BzYB+v4pUCYkrVtiD+qmvr9NNJT6JrZPB4YJMcR3LpNvsRyQCLjJp4DqkAhG5Hr9wE4iJK/gMmBJfcZWtGm34x+qyzIAWsgB07Kz4GBGrGzW/+K3LAfnaw3tuaa3yLaCPnErc/5PO5P7D4aU99MQ8RzgL/BZCvLiH38PVTz37pBIK0n6bstmBwYc7ogByATcuCk3ByQSbnO0Gu1bgZmin4m5QXHyfF+g1zVrm8ia4j5M8NrjmY2QNvy9/D/ncgBGRn4g302GxD17/kTNmGXQl0mTAw09Jfwn7FEDkA25MBJuTnA7XvmFyzRHYMdn4zN6X1oTun89a6ZHphNqW86CzP+ND8ThtyV95cX8jmeexTBbEIiB2RkMI403nZDrgsO+Hv5QwGPSK5vRHPFz4G9LGtADkAm5MBJeTkw66sGK8uEB7odqha4UXcX6dxMbjvD3by1bLhhN5/b+F4qhUm94rD3LrsFaXHXas29PTds1ww2WDIHeGSQ2BLQbcjPd5u6P8AxwB/lbxcLApUDej4SOQCZkAMn5eUAd/NlSXBz1NLNfK0rDfIIfcxB0KO+NGMxDVYOt8P7F8T67k0ZT2juJrLOOJUDPDJINN61LkrYl6XEPY4TDoQZ/5ToymLJAY4BuT6JHIBMyIG0pZyyQ9G6ZMpBTfDdJm4pKgXHVevjcQB3/6e066w3Tn+w059utDxnPHHuk/cz6nS9vdMfO4272AfWsbLHYu550csBswMHQ699L12TNfcDxurLpS7JKhhpSIWCOUeFJEorft0QOQAaciCNu/fHSduch919Meceu2suC/K51+U2mb5+WLLuTW/AvQ2Zclh726U8NqkhQeD2JBOG9x4PTHo8TFFtnvs2UbEyhmnIAWsgB9I2epd+rgm3NumgRxq6NDyzg5AdpI0Fi/wvReYIubXrmYGWjDj0/RjFjGNpoq4pSu0RuXvKWvUUmkHFBKYrmByBHLAGcuCBtrvYZfr12D8XixanRHzO/gKGfZoc/C7JcExu7Cfem4FBj6a7cI7hLlpRuXdq+zFywBrIgZLo823gJpz0v5jbaMNf34e7CvK1onXXu63Ukqc45IA1kAOQCzlgDeQA5EIOWAM5ALmQA9ZADkAu5IA1kAOQCzlgDeQA5EIOWAM5ALmQA9ZADkAu5IA1kAOQCzlgDeQA5EIOWAM5ALmQA9ZADkAu5IA1kAOQCzlgDeQA5EIOWAM5ALmQA9ZADkAu5IA1kAOQCzlgDeQA5EIOWAM5ALmQA9ZADkAu5IA1kAOQCzlgDeQA5EIOWAM5ALmQA9ZADkAu5IA1kAOQCzlgDeQA5EIOWAM5ALmQA9ZADkAu5IA1kAOQCzlgDeQA5EIOWAM5ALmQA9ZADkAu5IA1kAOQCzlgDeQA5EIOWMPOHICCzDP2NCEHikMOwBHmGXuakAPF2ZgD9YRXomzIgeJw9NUFXomyIQeKw9FXF3glyoYcKA5HX13glSgbcqA4HH11gVeibMiB4nD01QVeibIhB4rD0VcXeCXKhhwoDkdfXeCVKBtyoDgcfXWBV6JsyIHicPTVBV6JsiEHisPRVxd4JcqGHCgOR19d4JUoG3KgOBx9dYFXomzIgeJw9NUFXomyIQeKw9FXF3glyoYcKA5HX13glSgbcqA4HH11gVeibMiB4nD01QVeibIhB4rD0VcXeCXKhhwoDkdfXeCVKBtyoDgcfXWBV6JsyIHicPTVBV6JsiEHisPRVxd4JcqGHCgOR19d4JUoG3KgOBx9dYFXomzIgeJw9NUFXomyIQeKw9FXF3glyoYcKA5HX13glSgbcqA4HH11gVeibMiB4nD01QVeibIhB4rD0VcXeCXKhhwoDkdfXeCVKBtyoDgcfXWBV6JsyIHicPTVBV6JsiEHisPRVxd4JcqGHCgOR19d4JUoG3KgOBx9dYFXomzIgeJw9NUFXomyIQeKw9FXF3glyoYcKA5HX13glSgbcqA4HH11gVeibMiB4nD01QVeibIhB4rD0VcXeCXKhhwoDkdfXeCVKBtyoDgcfXWBV6JsyIHicPTVBV6JsiEHisPRVxd4JcqGHCgOR19d4JUoG3KgOBx9dYFXomzIgeJw9NUFXomyIQeKw9FXF3glyoYcKA5HX13glSgbcqA4HH11gVeibMiB4nD01QVeibIhB4rD0VcXeCXKhhwoDkdfXeCVKBtyoDgcfXWBV6JsyIHicPTVBV6JsiEHisPRVxd4JcqGHCgOR19d4JUoG3KgOBx9dYFXomzIgeJw9NUFXomyIQeKw9FXF3glyoYcKA5HX13glSgbcqA4HH11gVeibMiB4nD01QVeibIhB4rD0VcXeCXKhhwoDkdfXeCVKBtyoDgcfXWBV6JsyIHicPTVBV6JsiEHisPRVxd4JcqGHCgOR19d4JUoG3KgOBx9dYFXomzIgeJw9NUFXomyIQeKw9FXF3glyoYcKA5HX13glSgbcqA4HH11gVeibMiB4nD0Ve+HN4LU//9r3gePhxwoDjlQvXefKfDRvA8eDzlQHHKgBr6aECD61rwHSoAcKA45UANhhwDdgRIhB4pDDtSB3yFAd6BMyIHikAN14HcI0B0oE3KgOORALegOAboDpUIOFIccqAXdIUB3oFTIgeKQA/UgHQJ0B8qFHCgOOVAP0iFAd6BcyIHikAM18RXdgbIhB4qzMQdkKA6FmGfsaUIOFIccgCPMM/Y0IQeKszMHOlAEcsAayAHIhRywBnIAciEHrIEcgFzIAWsgByAXcsAayAHIhRywBnIAciEHrIEcgFzIAWsgByAXcsAayAHIhRywBnIAciEHrIEcgFzIAWsgByAXcsAayAHIhRywBnIAciEHrIEcgFzIAWsgByAXcsAayAHIhRywBnIAciEHrIEcgFzIAWsgByAXcsAayAHIhRywBnIAciEHrIEcgFzIAWsgByAXcsAayAHIhRywBnIAciEHrIEcgFzIAWsgByAXcsAayAHIhRywBnIAciEHrIEcgFzIAWsgByAXcsAayAHIhRywBnKgJGvzVpubt08bcsAayIFyzPs35pFo06BpHuaj6c48qivkgDWQA6WYTYjuzGO2J+ovzeNcAzqYR3WFHLAGcqAc7T6RZx5zd4AWM/PYN2tszaMb70Y9HJAaPazb8n9f02l4GfbxrsPSvDsp9q0eDzlgDeRASSQINuaxQ4NkDHTGtDLvO5Cr2uuAWvKGQ6Mhb7U7yuaYj2sb896k04ORsyAHrIEcKEt7QKTHAtyWb9WDqCXRvX7UNI3a5MCQKHIab9K4lbahvfm4dnB6pgcQ45Q8PYkcsAZyoDTDgR4YDN1whBDR8GcQEjnArc0fMTD/g3Fe0NW4KuSANZADj9I0HfJ8QVd95pCrugnpHFBvNORAeZADxSEHHuWMHOhsJ7qNIweuBDlQHHLgUbZd8yBPN9Lnb23UTKE/BTChkXqbGBcMzGA/ykEOPAByoDjkwDV4c9Xi2WjZGZmeQigSJnkdDOTA+ZADxSEHLmXr7D3/6qFpzGLTad6bs7xvF7tegP5AWZADxVmTA+9fmgel50AjXPnTiKwEGBJNzcOOszCf4Dkn1hDWdn7gr/fmwdOBHCjOmhx4S2/8JCg5B6KLeqKNOLLAsLjTOXAwI4w8I/N5JQhz4K/3T7BvgBwozqIcID8JSs6BHm1ME9zETtux9UFFnc4BHTj5BubzSuC3fUkB5MCzZlUOmCQoOQe84Lzv6RXCzsqRhQJEQ/lXVLe5zl4THDTzvBwI9xc4CS5NzSOtxE2Muu3rFEAOPGuW5YBKggvmgHq0IFeuBEZzYK0XGt8RjTgHVHtdEa3UA8eJ5UC2rHTQBmXvKghJ2/dTADnwrNFLS3wyRzMnwaVzwOwGiOTAllx16aBB02AD0pImweOQF6ZDxCSccky5aA6EKUBP70j5GzlQ2BtbfDZHs2KO83J45PgXA/wc6MmbaH9gpbcgORTO4t0H8ZGh6dzLZoTNandy69BFc8DvRQnzRD4h35uDHMAXHNFvfyg9B0ImB9SbaA54arPhzI10EVw1eMjR0kOFnj/XeJtet+gHxGXHBT+ESWCeSIAnzBzPb7mvWHoOhNcL8nLgVk3jt2is/8kakam/iO1GfRHngLR8zx8PjN1kY9+6pvSZyYHh+AFXJ05QbT9IAv08Ajxl6miWFLjo9YK8HOj05R/q49zEU8wnSevWcwtD/T6PFvKmc8OfkxggNIimquXrHFhPqV96EJi2b5JAPQZ40vhY1ilQTQ4spLU6Up+Em7jjOAO52reiPj8cU998EuPmLTMJQQ6oCwmzCbnRMqhs1qeBLpFs+gNzt/wgCNq+SgLzGOAJe+unQDU5IC165kqD103ck9Y7VJcDW9GlP9uJqmkWz4EDUSIGOvemmEE4P3CBIIi0fU4C8wjgCfvZvGWl50AoNweW3NhbqlVn5EB0ccCI5JpCLAdaro6DiNtw0XIwT9julx0EsT4ALsLB83L5HFDNNpYDW+7Ge+qsfiIHOjxM2MZyYNinSfwuKTIbEHxNkAOddtk9AowF4BkrPQf8U7N5tE+tI2L8eOxKcz6VA0upXxzJAW7zpnBRYOZQP/jeYQ6UPjRADsAzdukccHTDjueAdAn43bfzUzkgk4LbSA4sYnXNxYzfFd4lJZIDsiq5zCBADsAzdukcaLdUW0zkwMwj2UkwOpUDnRFNu5EcaPbDtchKd0x6waIWzYHOATkAUMylc8AIcmB74/WciZ5AmN6ezIGZN4uOCzrbeMvu8neK3s0glgOdHsYFAIVcPQdcnQFOb74O5wf4U7tmlWE8B0Q0B5K2Pf/OSEo/lgOlQg7AM3btHOCe/mQ3Mpf7TRNvyKC/RRN+eG4OxPFnIgcAzld6DvijdbPfUFuHOTCLThToJn6QQoVDTz5/bnKg6YR3K2sQyRuHxuqf4t5xkhuTmuNdg0cJiasJ5UEOwDNWcg401ElbVyPXy/62UkNwQZS46q+ZU712O2q1ViYHousQskXjRBnLe/UWhEtADsAzVnIObNTOwVmfm6Q/f6faZ07tEM6BsD3rTUe6Y9/ik77et5hlzh9N5cod0WqUUc2kJMgBeMZKzoGFPp/3Nl5QJEB1Dhap07dyG61fOnNpsk/uHagN5AA8YyXnQIauN/enBU+4zRw71ARyAJ6xy+fAM4EcgGcMOVAQcgCeMeRAQcgBeMaQAwUhB+AZQw4UhByAZww5UBByAJ4x5EBByAF4xpADBSEH4BlDDhSEHIBnDDlQEHIAnjHkQEHIAXjGkAMFIQfgGUMOFIQcgGcMOVAQcgCeMeRAQcgBeMaQAwUhB+AZQw4UhByAZww5UBByAJ4x5EBByAF4xpADBSEH4BlDDhSEHIBnDDlQEHIAnjHkQEHIAXjGkAMFIQfgGUMOFIQcgGcMOVAQcgCeMeRAQcgBeMaQAwUhB+AZQw4UhByAZww5UBByAJ4x5EBByAF4xpADBSEH4BlDDhSEHIBnjKAo84wBPD/mGIfTzDMGANeBNgcAyAEAQA4AAHIAAJADAIAcAADkAAAgBwAAOQAAyAEAQA4AAHIAAJADAIAcAADkAAAgBwAAOQAAyAEAQA4AAHIAAJADAIAcAADkAAAgBwAAOQAAyAEAQA4AAHIAAJADAIAcAADkAAAgBwAAOQAAyAEAQA4AAHIAAJADAIAcAADkAAAgBwAAOQAAyAEAQA4AAHIAAJADAIAcAADkAAAgBwAAOQAAyAEAQA4AAHIAAJADAIAcAADkAAAgBwAAOQAAyAEAQA4AAHIAAJADAIAcAADkAAAgBwAAOQAAyAEAQA4AAHIAAJADAIAcAADkAAAgBwAAOQAAyAEAQA4AAHIAAJADADb74Y0g9f//mvcBgF3efabAR/M+ALDMVxMCRN+a9wCAbcIOAboDANbyOwToDgDYy+8QoDsAYDHdIUB3AMBmukOA7gCA1aRDgO4AgN2kQ4DuAIDlvqI7AFB3L16+ev3tmzffyTD+iXn75s2b169fvjN/CQA8yPfv35o29ZR9+PaHF+YPAoDzfPzxk7Qip9FstVrtztPT5d/7puf0+Y/4/NPP5q8CgOJ++ZWbz6DRNW3qKRuOxvy3vH31xfxpAFDIK+4KTBpPsROQbTiacqfgK5IAoLDffieaNmemDT0T8wXRhx/MXwgAx315zwOCpWk9z0nbIfr1D/NXAsARv30it/fM+gK+5oQ+o0sAcNIrotVzmBzMtt4Q/YiLiABHvfiWqPFMOwNa80/67i/z1wJAhhd/U/85zgxEtaf0FkEAkOvLd9R/PtcK86zH9BazhQA5OAYGzz8GVBB8wBZHgEwv3tBgaJrK8zZb0CcMDQCy/GRLDHAQrOg7rC0ESPuH/vV8rxcmrQf0t/m7ASDwC7kt00hsMOzTP+YvBwDj3f+hG9NE7HD7J/1m/nYA0H6ihWkgtvDodywsBIj6hfpb0z5sMRtjZAAQxaOCO9M87NHGyAAg6idyTOOwSQ8jA4DQ9+TasnIgajbFyADA9+UTjUzTsMstYWQAYHyllWkYtunRd+Y5ALDcl89kw+6iLLMJvTTPAoDdXlk5Sah5uKkagPKJnnvpkXzbPwm3PQP45pufaWAahY129NU8DwA2+9XSiwVamz5hDQHAR3KfdV3SU8b0b/NMANjrPTVMi7DTDS4dArz7TPZUH8mCS4cA37ymvWkQtvLoJ/NcANjqV4svGmpD+oCZQrDbF3LXpj1Ya4CBAVjuB4vXEvoa2HUIlntPB9MaLmid7HLcto5eqpxdd7tDC1cMwHIfrnG1YOTex8sbDIjuzcMsQ7pqL2XmEm5qAjb7iyamMVzSmGga6xKME/9O2NJ1ayfv6WfzfADY6OdrXDVsE+3j4wDnxNoloqveSsHDBAFY7es1pgca5CZqITvUNI+yEV21TNoS9zYCq72huWkLlzObpDYyJXOgfdeK4XGBeaQsvcvGwpo+mOcDwEb/ocuvHhjRREYF0WsAyRxo0gkXHiYMMFEIFnt3hdID3B2QSb/ZZHzb2e09ZUDmgbffyefMHWdn3qEQNcwjsXecC19I3NP35hkBsM9vV7g+N6KxvLnjs/rtQJ/dozKD6MrzA50G/WCeEQD7/Ewb0xIuhrsDqlM/JvI6I89byoB/TD0z8Pcya6BcOwcO9No8IwD2eUU90xIu5qCvTC5jK4dqdr2gc0PvzTMCYJ+vF7+rYZNcNbZ39GShkZkDcydAtDKPmPnwJd3SG/OMANjn/aUvG85c6qvGTLHEycyBlpkxSLhGEdUh/W6eEQD7/H3xdXv3pjXryUJfZg60aaImDVi4fqAX/8ILGdJb84wA2OfNxXOg6921WtutG/9BmTkwDE/94fxA8yo7jpADYLPvrjQf1zDbGLbOvVoR4K8f2EUbeYU5wD/QPCMA9nl7nRwYumaDwdAMEkLq3RpyAKASn66TA46/wWDteQcz8Gdz7hHo9yvIAYBKXKc/cFdsru+2unlC5ADY7Co5sO0Xu616hdcNkQNgszfFWuijzFZSdGTbOtyfuG9Sc6xWGjhTaf19s+7Acfrmw5e0xcZjsNjlrxt25mOijeNK277vdNqR6YFWy/MyYmg94BCgG/ea91XAdUOw2U+Xz4GeJIDoOzecCuYfvvRyxplD/TbRcGQWJF8FcgBs9uOJ/T4luJUE6DVNofIW9dXCAY0yhiUbclvqesGeJle5mCHa9Kt5RgDs898rlCdsRWsTtmLTfuHlwYBHLvcR5APrMQ2udQfWOW5xCBb74ehtBC7gVA7ck+qhqA9wEPRv9bsv7Y6+mmcEwD4vaWFawpWcyIEN6RVH+gMcBO517mPQo1fmGQGwz180NS3hCpbcpo/mwHovNYuE+cB6RbRIRMVF7HAjE7AZuUdvNFie1n1fah8dy4H5xPQGwg/MeJzgepf/Fcf00TwhABb67goLibiF33MTV5VI8nNgzWOCqT8dEH7gziXq3194vnDmfn5hnhAAC72/dGGybvOeO/dsNZLG3Ar3ELCwuW+9PtEmuJdCJCBu1fLCy9597RY3PAar/fvCBYtnaiEh7e/MxcPkHgLT3Edy1o9MCUY7Cp1Rn1aXvdvKiH40zweAjT5eejvfjnv7d2ErbvFwPxQ099mGVtFlBhS7G/u2ceGbLm3o3+b5ALDRi88XvrHZfBdbAsD9AfOIbcP7lc3i6xqvfL/jAaYJwW5vLr+yOOqGKJz9b1POXqJIQFxDF7sNwXKvLn9Ho6hty2w0OGrrOJe/DXPogLuYgOX+oGvs7683B3c3BNu9ve5QvIbWf9IX82QAWOpHqRZktSY2HYP1Pl5taXFdjXHVEOBXf1G/pW7pExYVg/V+vuaewxraofYAwDcvPl2zImjtbP+kv8wzAWCxVxfexVNvHn1rngcAm737fJXNx/U0m9D35nkAsJrNlw6X2HIMoHwk98Ib+uprhcqEANobKRlmpTl9wEVDAOU3oisVCK+Z9f/Qf81zAGC9f2hq5aLCDZYUAwRe/G4KhttlTp//MM8AAPDI4E/7rh1iVAAQ9w+NrRsZbOiN+esBQFg4MuBRAVYUA8RYNzLgUQH2GwMk/EODaOnw527mYFQAkPLiV6umCHb0CaMCgJQvb699F/QKefQZ9ywAyPDHf65bxLxCTcKdzgGyvfxsSRDcEVYOAOT5/j+0t2COwCPsMgTI9/EDOc/9qsHsnnDjEoBjPn6iyfO+sclwTJ9RggjgqHdv6FmvLFz+i37HlQKAU/4hGj/XcgTbPdG3uIsZwGnffyK6f5aVyg7/os+4UABQyBfuEvS95zZfOGsOiP7GIkKAov74lci975oW9BxsDxOit5ggBDjHy2+JaOo9jyjY3jn813yHq4UA5/rrxw/ceMa7Q+tJzxW0Rvcr/js+//TS/F0AcJaf30sUPH2ff/oF5ckBHu7jL6/fPOUw+Pzm67/RE6iBb775/wPsXJUqU31/DgAAAABJRU5ErkJggg==;" vertex="1" parent="1">
          <mxGeometry x="210" y="220" width="1031" height="1939" as="geometry" />
        </mxCell>
      </root>
    </mxGraphModel>
  </diagram>
</mxfile>
